<svg width="744" height="241" viewBox="0 0 744 241" fill="none" xmlns="http://www.w3.org/2000/svg">
<path d="M443.375 10L382.625 194M507.5 62.6621L483.875 41.7241M483.875 162.276L545.975 106.441C548.675 103.903 548.675 99.4621 545.975 96.9241L530.45 82.9655M313.1 136.262L280.025 107.076C277.325 104.538 277.325 100.097 280.025 97.5586L342.125 41.7241M342.125 162.276L333.35 154.662" stroke="#FFBFBF" stroke-opacity="0.6" stroke-width="19" stroke-linecap="round" stroke-linejoin="round"/>
<path d="M156.792 151.784V77.928C156.792 77.672 156.92 77.4587 157.176 77.288C157.432 77.1173 157.731 76.9467 158.072 76.776C158.499 76.52 158.925 76.3493 159.352 76.264C159.779 76.1787 160.12 76.1787 160.376 76.264C160.632 76.3493 160.973 76.5627 161.4 76.904C161.827 77.16 162.211 77.4587 162.552 77.8C162.979 78.1413 163.32 78.5253 163.576 78.952C163.832 79.2933 163.96 79.5493 163.96 79.72V137.32C164.813 136.211 166.221 135.485 168.184 135.144C170.147 134.717 172.493 134.461 175.224 134.376C177.955 134.205 180.899 134.12 184.056 134.12C187.299 134.035 190.584 133.864 193.912 133.608C197.24 133.267 200.483 132.712 203.64 131.944C206.883 131.091 209.827 129.853 212.472 128.232C215.117 126.781 216.867 126.056 217.72 126.056C218.659 125.971 219 126.397 218.744 127.336C218.488 128.189 217.677 129.341 216.312 130.792C214.947 132.243 213.24 133.736 211.192 135.272C209.144 136.723 206.84 138.003 204.28 139.112C201.72 140.136 199.075 140.733 196.344 140.904C195.661 140.904 194.637 140.904 193.272 140.904C191.907 140.904 190.285 140.947 188.408 141.032C186.616 141.032 184.739 141.032 182.776 141.032C180.899 140.947 179.064 140.904 177.272 140.904H172.536C171.171 140.904 170.147 140.904 169.464 140.904C168.611 141.501 167.757 142.568 166.904 144.104C166.051 145.555 165.112 146.963 164.088 148.328C163.064 149.693 161.955 150.803 160.76 151.656C159.651 152.509 158.328 152.552 156.792 151.784ZM230.308 151.784C229.711 150.589 229.54 149.309 229.796 147.944C230.052 146.579 230.607 145.341 231.46 144.232C232.313 143.037 233.337 142.013 234.532 141.16C235.727 140.221 236.964 139.709 238.244 139.624C239.524 139.539 240.761 139.837 241.956 140.52C243.151 141.203 244.089 142.525 244.772 144.488C245.284 145.683 245.327 146.835 244.9 147.944C244.559 149.139 243.919 150.163 242.98 151.016C242.041 151.869 240.975 152.552 239.78 153.064C238.585 153.661 237.391 154.045 236.196 154.216C235.001 154.387 233.849 154.259 232.74 153.832C231.716 153.491 230.905 152.808 230.308 151.784ZM309.94 133.736C309.855 133.395 309.556 132.797 309.044 131.944C308.617 131.005 308.276 130.408 308.02 130.152C307.252 129.811 305.844 129.341 303.796 128.744C301.833 128.061 299.7 127.336 297.396 126.568C295.092 125.715 292.916 124.947 290.868 124.264C288.82 123.581 287.369 123.112 286.516 122.856C286.345 122.771 285.919 122.557 285.236 122.216C284.553 121.789 283.785 121.363 282.932 120.936C282.079 120.424 281.311 119.997 280.628 119.656C279.945 119.315 279.476 119.144 279.22 119.144C277.94 119.144 276.703 119.955 275.508 121.576C274.399 123.197 273.247 125.203 272.052 127.592C270.857 129.896 269.62 132.371 268.34 135.016C267.06 137.661 265.609 140.093 263.988 142.312C262.367 144.445 260.617 146.109 258.74 147.304C256.863 148.499 254.729 148.755 252.34 148.072V144.488C252.852 143.891 253.62 142.952 254.644 141.672C255.668 140.307 256.82 138.813 258.1 137.192C259.465 135.485 260.873 133.736 262.324 131.944C263.775 130.152 265.14 128.403 266.42 126.696C267.7 124.989 268.809 123.496 269.748 122.216C270.772 120.851 271.54 119.827 272.052 119.144C272.905 118.035 273.033 116.413 272.436 114.28C271.924 112.147 271.071 109.885 269.876 107.496C268.767 105.107 267.529 102.717 266.164 100.328C264.884 97.8533 263.945 95.7627 263.348 94.056C262.836 92.264 262.879 90.984 263.476 90.216C264.159 89.448 265.908 89.5333 268.724 90.472C269.577 93.3733 270.857 96.36 272.564 99.432C274.356 102.504 276.575 104.893 279.22 106.6C281.439 105.149 283.529 103.229 285.492 100.84C287.455 98.3653 289.289 95.592 290.996 92.52C292.703 89.3627 294.239 86.0347 295.604 82.536C297.055 79.0373 298.335 75.5813 299.444 72.168C300.639 68.7547 301.663 65.512 302.516 62.44C303.369 59.368 304.052 56.7227 304.564 54.504C305.161 53.5653 305.929 52.84 306.868 52.328C307.892 51.7307 308.916 51.2613 309.94 50.92C310.367 51.5173 310.665 53.0533 310.836 55.528C311.007 57.9173 311.092 60.8613 311.092 64.36C311.092 67.7733 311.007 71.6133 310.836 75.88C310.751 80.1467 310.665 84.456 310.58 88.808C310.58 93.0747 310.623 97.256 310.708 101.352C310.793 105.448 310.964 109.075 311.22 112.232C311.561 115.389 312.031 117.949 312.628 119.912C313.311 121.875 314.207 122.856 315.316 122.856H326.196V129.256H317.108C315.913 129.256 315.444 130.067 315.7 131.688C315.956 133.224 316.596 135.187 317.62 137.576C318.644 139.965 319.796 142.611 321.076 145.512C322.441 148.499 323.593 151.357 324.532 154.088C325.471 156.819 325.983 159.251 326.068 161.384C326.239 163.603 325.641 165.181 324.276 166.12C324.02 166.291 323.423 166.376 322.484 166.376C321.545 166.376 320.905 166.291 320.564 166.12C320.308 164.84 319.668 162.664 318.644 159.592C317.62 156.52 316.511 153.235 315.316 149.736C314.207 146.323 313.097 143.123 311.988 140.136C310.964 137.064 310.281 134.931 309.94 133.736ZM291.892 117.48C292.319 117.736 293.087 118.12 294.196 118.632C295.391 119.059 296.628 119.571 297.908 120.168C299.273 120.765 300.596 121.32 301.876 121.832C303.156 122.259 304.052 122.6 304.564 122.856C304.735 122.941 304.991 122.984 305.332 122.984C305.759 122.984 306.057 122.941 306.228 122.856C306.569 120.04 306.569 116.499 306.228 112.232C305.972 107.88 305.588 103.485 305.076 99.048C304.649 94.5253 304.18 90.216 303.668 86.12C303.241 81.9387 302.943 78.6533 302.772 76.264L282.932 112.104C283.188 112.36 283.743 112.744 284.596 113.256C285.535 113.768 286.431 114.323 287.284 114.92C288.223 115.432 289.119 115.944 289.972 116.456C290.911 116.968 291.551 117.309 291.892 117.48ZM335.558 151.784C334.961 150.589 334.79 149.309 335.046 147.944C335.302 146.579 335.857 145.341 336.71 144.232C337.563 143.037 338.587 142.013 339.782 141.16C340.977 140.221 342.214 139.709 343.494 139.624C344.774 139.539 346.011 139.837 347.206 140.52C348.401 141.203 349.339 142.525 350.022 144.488C350.534 145.683 350.577 146.835 350.15 147.944C349.809 149.139 349.169 150.163 348.23 151.016C347.291 151.869 346.225 152.552 345.03 153.064C343.835 153.661 342.641 154.045 341.446 154.216C340.251 154.387 339.099 154.259 337.99 153.832C336.966 153.491 336.155 152.808 335.558 151.784ZM432.859 151.784C432.774 151.357 432.731 150.675 432.731 149.736C432.731 148.883 432.774 148.328 432.859 148.072C432.944 147.987 433.158 147.859 433.499 147.688C433.84 147.603 434.182 147.432 434.523 147.176C434.95 146.92 435.334 146.707 435.675 146.536C436.102 146.451 436.358 146.365 436.443 146.28C439.515 145.427 442.544 144.531 445.531 143.592C448.603 142.568 451.59 141.459 454.491 140.264C457.392 139.069 460.166 137.661 462.811 136.04C465.542 134.333 468.144 132.413 470.619 130.28C476.592 124.819 480.859 120.168 483.419 116.328C485.979 112.403 487.344 109.075 487.515 106.344C487.686 103.613 486.832 101.437 484.955 99.816C483.163 98.1947 480.859 97 478.043 96.232C475.227 95.3787 472.155 94.952 468.827 94.952C465.499 94.8667 462.384 95.0373 459.483 95.464C456.582 95.8053 454.15 96.36 452.187 97.128C450.224 97.896 449.2 98.7067 449.115 99.56L445.531 135.528C445.531 136.125 445.19 136.595 444.507 136.936C443.91 137.277 443.27 137.448 442.587 137.448C441.99 137.448 441.435 137.277 440.923 136.936C440.411 136.595 440.155 136.125 440.155 135.528V106.6H432.859C432.859 106.429 432.859 106.173 432.859 105.832C432.859 105.405 432.859 105.107 432.859 104.936C433.115 104.509 433.584 103.869 434.267 103.016C434.95 102.163 435.632 101.267 436.315 100.328C437.083 99.3893 437.808 98.4933 438.491 97.64C439.259 96.7867 439.814 96.232 440.155 95.976C440.24 95.1227 440.368 93.5867 440.539 91.368C440.71 89.064 440.88 86.6747 441.051 84.2C441.222 81.7253 441.392 79.3787 441.563 77.16C441.734 74.9413 441.862 73.4053 441.947 72.552C442.032 70.6747 441.819 69.352 441.307 68.584C440.795 67.7307 440.07 67.304 439.131 67.304C438.278 67.2187 437.296 67.4747 436.187 68.072C435.078 68.584 433.968 69.224 432.859 69.992C431.75 70.76 430.683 71.5707 429.659 72.424C428.72 73.192 427.995 73.7893 427.483 74.216C426.971 74.8987 425.99 75.9227 424.539 77.288C423.174 78.568 421.723 79.976 420.187 81.512C418.651 83.048 417.2 84.4987 415.835 85.864C414.47 87.2293 413.574 88.2107 413.147 88.808H407.643C407.046 86.76 407.43 84.6693 408.795 82.536C410.246 80.4027 412.379 78.184 415.195 75.88C418.096 73.576 421.467 71.3147 425.307 69.096C429.232 66.792 433.371 64.616 437.723 62.568C442.16 60.52 446.555 58.6427 450.907 56.936C455.259 55.2293 459.355 53.7787 463.195 52.584C467.035 51.304 470.406 50.3653 473.307 49.768C476.294 49.0853 478.427 48.872 479.707 49.128C480.902 49.384 481.67 50.0667 482.011 51.176C482.352 52.2853 482.438 53.5227 482.267 54.888C482.096 56.168 481.712 57.4907 481.115 58.856C480.603 60.136 480.134 61.1173 479.707 61.8C477.574 64.7867 475.568 67.5173 473.691 69.992C471.899 72.4667 470.064 74.8133 468.187 77.032C466.31 79.1653 464.262 81.3413 462.043 83.56C459.91 85.6933 457.435 88.04 454.619 90.6C457.008 91.0267 459.27 91.112 461.403 90.856C463.536 90.5147 465.627 90.216 467.675 89.96C469.808 89.6187 472.027 89.448 474.331 89.448C476.635 89.3627 479.024 89.7467 481.499 90.6C483.035 91.112 484.358 91.624 485.467 92.136C486.662 92.648 487.686 93.288 488.539 94.056C489.478 94.824 490.203 95.8053 490.715 97C491.312 98.1093 491.867 99.5173 492.379 101.224C493.232 105.405 492.848 109.459 491.227 113.384C489.691 117.309 487.302 121.064 484.059 124.648C480.816 128.147 477.062 131.432 472.795 134.504C468.528 137.576 464.176 140.392 459.739 142.952C455.302 145.427 451.035 147.517 446.939 149.224C442.843 151.016 439.344 152.467 436.443 153.576C435.675 153.832 434.95 153.747 434.267 153.32C433.584 152.893 433.115 152.381 432.859 151.784ZM449.115 65.256V88.808C449.627 88.296 450.352 87.6133 451.291 86.76C452.23 85.8213 453.296 84.7547 454.491 83.56C455.686 82.3653 456.923 81.128 458.203 79.848C459.568 78.568 460.806 77.3307 461.915 76.136C463.11 74.856 464.134 73.7467 464.987 72.808C465.926 71.8693 466.651 71.144 467.163 70.632C467.846 69.9493 468.656 68.968 469.595 67.688C470.619 66.3227 471.6 64.9573 472.539 63.592C473.563 62.2267 474.416 61.032 475.099 60.008C475.782 58.984 476.123 58.344 476.123 58.088V52.712C474.075 52.3707 471.643 52.584 468.827 53.352C466.011 54.0347 463.195 54.9307 460.379 56.04C457.648 57.064 455.088 58.1307 452.699 59.24C450.31 60.3493 448.518 61.2027 447.323 61.8L449.115 65.256ZM500.48 151.784C499.115 148.883 498.347 145.939 498.176 142.952C498.091 139.965 498.261 136.936 498.688 133.864C498.773 132.84 498.944 131.389 499.2 129.512C499.456 127.549 499.755 125.416 500.096 123.112C500.437 120.723 500.821 118.205 501.248 115.56C501.675 112.915 502.059 110.44 502.4 108.136C502.741 105.747 503.04 103.656 503.296 101.864C503.637 100.072 503.893 98.7067 504.064 97.768C504.576 94.8667 505.173 92.392 505.856 90.344C506.539 88.296 507.435 86.7173 508.544 85.608C509.739 84.4987 511.232 83.9013 513.024 83.816C514.901 83.7307 517.291 84.2 520.192 85.224C520.533 85.3093 520.917 85.608 521.344 86.12C521.771 86.5467 521.984 86.8027 521.984 86.888C522.155 87.8267 522.411 89.2347 522.752 91.112C523.179 92.9893 523.605 95.1227 524.032 97.512C524.544 99.9013 525.056 102.376 525.568 104.936C526.165 107.496 526.677 109.971 527.104 112.36C527.531 114.749 527.915 116.883 528.256 118.76C528.683 120.637 529.024 122.045 529.28 122.984C530.304 127.848 531.584 131.261 533.12 133.224C534.656 135.101 536.277 136.083 537.984 136.168C539.691 136.253 541.483 135.699 543.36 134.504C545.237 133.224 547.029 131.901 548.736 130.536C550.528 129.171 552.235 128.019 553.856 127.08C555.477 126.141 556.843 125.971 557.952 126.568C557.952 127.848 557.653 129.128 557.056 130.408C556.459 131.603 555.691 132.755 554.752 133.864C553.899 134.888 552.96 135.869 551.936 136.808C550.912 137.747 549.973 138.515 549.12 139.112C545.195 141.672 541.952 143.037 539.392 143.208C536.832 143.293 534.613 142.696 532.736 141.416C530.944 140.136 529.493 138.344 528.384 136.04C527.275 133.736 526.293 131.432 525.44 129.128C524.672 126.739 523.861 124.648 523.008 122.856C522.24 120.979 521.301 119.784 520.192 119.272C519.936 120.211 519.467 121.789 518.784 124.008C518.187 126.141 517.504 128.488 516.736 131.048C515.968 133.523 515.243 135.869 514.56 138.088C513.877 140.307 513.365 141.843 513.024 142.696C512.939 143.037 512.683 143.72 512.256 144.744C511.829 145.683 511.232 146.707 510.464 147.816C509.781 149.011 509.013 150.12 508.16 151.144C507.307 152.253 506.411 153.107 505.472 153.704C504.619 154.301 503.723 154.472 502.784 154.216C501.931 154.045 501.163 153.235 500.48 151.784ZM505.856 121.192C505.771 122.045 505.685 123.581 505.6 125.8C505.6 128.019 505.6 130.365 505.6 132.84C505.6 135.229 505.6 137.576 505.6 139.88C505.685 142.099 505.771 143.635 505.856 144.488C508.245 140.819 510.379 136.552 512.256 131.688C514.219 126.824 515.712 121.789 516.736 116.584C517.76 111.293 518.144 106.088 517.888 100.968C517.717 95.848 516.736 91.1547 514.944 86.888C513.664 89.1067 512.512 91.8373 511.488 95.08C510.464 98.3227 509.568 101.608 508.8 104.936C508.117 108.264 507.477 111.421 506.88 114.408C506.368 117.395 506.027 119.656 505.856 121.192ZM555.796 151.784C555.881 150.845 555.924 149.267 555.924 147.048V132.968C555.924 130.749 555.881 129.171 555.796 128.232C555.711 127.891 555.583 127.037 555.412 125.672C555.241 124.307 555.028 122.685 554.772 120.808C554.516 118.845 554.26 116.84 554.004 114.792C553.748 112.744 553.449 110.824 553.108 109.032C552.852 107.155 552.639 105.533 552.468 104.168C552.297 102.717 552.169 101.736 552.084 101.224C551.999 100.285 551.956 99.304 551.956 98.28C552.041 97.256 552.255 96.36 552.596 95.592C552.937 94.824 553.449 94.312 554.132 94.056C554.9 93.7147 556.009 93.7573 557.46 94.184C557.545 95.6347 557.673 97.3413 557.844 99.304C558.1 101.267 558.356 103.315 558.612 105.448C558.868 107.581 559.209 109.715 559.636 111.848C560.063 113.896 560.575 115.816 561.172 117.608C562.025 114.963 562.879 112.659 563.732 110.696C564.671 108.733 565.695 106.941 566.804 105.32C567.913 103.699 569.151 102.12 570.516 100.584C571.881 99.048 573.545 97.512 575.508 95.976C577.897 93.928 579.903 93.1173 581.524 93.544C583.145 93.8853 584.468 95.08 585.492 97.128C586.601 99.0907 587.497 101.651 588.18 104.808C588.948 107.88 589.588 111.165 590.1 114.664C590.612 118.163 591.167 121.576 591.764 124.904C592.361 128.232 593.087 131.133 593.94 133.608C594.879 136.083 596.031 137.875 597.396 138.984C598.761 140.093 600.468 140.136 602.516 139.112C603.113 140.989 603.199 142.355 602.772 143.208C602.345 144.061 601.577 144.531 600.468 144.616C599.359 144.701 598.079 144.445 596.628 143.848C595.263 143.165 593.855 142.269 592.404 141.16C591.039 140.051 589.801 138.685 588.692 137.064C587.583 135.443 586.772 133.736 586.26 131.944C586.089 130.749 585.876 128.744 585.62 125.928C585.364 123.027 585.023 119.955 584.596 116.712C584.255 113.469 583.615 110.269 582.676 107.112C581.823 103.955 580.628 101.437 579.092 99.56L571.796 106.6C571.625 106.941 571.113 108.221 570.26 110.44C569.492 112.573 568.639 115.091 567.7 117.992C566.761 120.893 565.823 123.837 564.884 126.824C563.945 129.725 563.305 132.072 562.964 133.864C562.793 134.461 562.58 135.613 562.324 137.32C562.153 138.941 561.94 140.733 561.684 142.696C561.513 144.659 561.385 146.493 561.3 148.2C561.215 149.907 561.172 151.101 561.172 151.784C560.575 153.064 559.679 153.704 558.484 153.704C557.289 153.704 556.393 153.064 555.796 151.784ZM610.344 146.28C610.429 145.171 610.685 143.592 611.112 141.544C611.624 139.411 612.051 137.149 612.392 134.76C612.733 132.371 612.947 129.981 613.032 127.592C613.117 125.203 612.904 123.197 612.392 121.576C611.88 119.955 610.899 118.888 609.448 118.376C608.083 117.864 606.035 118.163 603.304 119.272C601.768 118.931 600.915 118.376 600.744 117.608C600.488 116.84 600.659 115.987 601.256 115.048C601.939 114.024 602.835 112.957 603.944 111.848C605.053 110.653 606.205 109.459 607.4 108.264C608.595 106.984 609.661 105.789 610.6 104.68C611.539 103.485 612.051 102.333 612.136 101.224C612.051 100.712 611.923 99.5173 611.752 97.64C611.667 95.7627 611.496 93.6293 611.24 91.24C610.984 88.7653 610.685 86.1627 610.344 83.432C610.088 80.616 609.832 77.9707 609.576 75.496C609.32 73.0213 609.107 70.8453 608.936 68.968C608.765 67.0907 608.637 65.8533 608.552 65.256C608.552 64.3173 608.552 63.464 608.552 62.696C608.637 61.928 608.893 61.288 609.32 60.776C609.747 60.1787 610.301 59.7947 610.984 59.624C611.752 59.4533 612.733 59.5813 613.928 60.008C614.269 62.568 614.611 65.5547 614.952 68.968C615.293 72.296 615.677 75.7093 616.104 79.208C616.531 82.7067 617 86.2053 617.512 89.704C618.024 93.2027 618.621 96.488 619.304 99.56C619.987 99.048 620.797 98.152 621.736 96.872C622.76 95.5067 623.827 94.0133 624.936 92.392C626.045 90.6853 627.197 89.0213 628.392 87.4C629.672 85.7787 630.867 84.4987 631.976 83.56C633.085 82.536 634.109 81.9387 635.048 81.768C635.987 81.5973 636.755 82.1093 637.352 83.304C637.437 83.4747 637.48 83.7733 637.48 84.2C637.48 84.6267 637.437 84.968 637.352 85.224C636.499 87.9547 635.091 90.5147 633.128 92.904C631.165 95.208 629.16 97.4693 627.112 99.688C625.064 101.907 623.272 104.168 621.736 106.472C620.2 108.776 619.389 111.251 619.304 113.896C619.901 114.408 620.84 115.347 622.12 116.712L631.08 125.672C632.787 127.379 634.408 129 635.944 130.536C637.48 132.072 638.803 133.437 639.912 134.632L642.728 137.32C643.069 137.661 643.709 138.301 644.648 139.24C645.587 140.179 646.397 141.203 647.08 142.312C647.763 143.421 648.104 144.488 648.104 145.512C648.189 146.536 647.592 147.389 646.312 148.072C646.141 148.157 645.843 148.2 645.416 148.2C644.989 148.2 644.691 148.157 644.52 148.072C641.021 143.72 637.139 139.283 632.872 134.76C628.605 130.237 624.083 126.312 619.304 122.984C619.219 123.581 619.133 124.563 619.048 125.928C618.963 127.208 618.749 128.701 618.408 130.408C618.152 132.029 617.896 133.779 617.64 135.656C617.469 137.448 617.256 139.155 617 140.776C616.744 142.397 616.488 143.848 616.232 145.128C616.061 146.493 615.891 147.475 615.72 148.072C615.635 148.499 615.421 149.053 615.08 149.736C614.824 150.504 614.44 151.229 613.928 151.912C613.416 152.595 612.861 153.107 612.264 153.448C611.667 153.789 611.027 153.832 610.344 153.576C610.344 153.235 610.301 152.723 610.216 152.04C610.216 151.443 610.216 150.76 610.216 149.992C610.216 149.224 610.216 148.499 610.216 147.816C610.301 147.133 610.344 146.621 610.344 146.28ZM658.939 151.784C657.318 150.504 656.08 148.755 655.227 146.536C654.459 144.317 654.032 142.227 653.947 140.264C653.947 138.301 654.203 136.765 654.715 135.656C655.312 134.547 656.123 134.504 657.147 135.528C656.976 139.283 657.659 142.141 659.195 144.104C660.731 145.981 662.566 147.176 664.699 147.688C666.832 148.2 669.136 148.072 671.611 147.304C674.086 146.536 676.176 145.341 677.883 143.72C679.675 142.099 680.912 140.136 681.595 137.832C682.278 135.443 681.894 132.925 680.443 130.28C678.736 128.147 676.731 126.141 674.427 124.264C672.208 122.387 669.947 120.509 667.643 118.632C665.339 116.755 663.12 114.835 660.987 112.872C658.854 110.909 656.976 108.819 655.355 106.6C655.184 106.429 655.099 106.173 655.099 105.832C655.099 105.405 655.184 105.107 655.355 104.936C655.867 104.339 656.55 103.4 657.403 102.12C658.256 100.755 659.28 99.2187 660.475 97.512C661.67 95.8053 662.907 94.056 664.187 92.264C665.552 90.472 666.832 88.7653 668.027 87.144C669.222 85.4373 670.246 83.944 671.099 82.664C672.038 81.2987 672.763 80.3173 673.275 79.72C674.214 78.44 675.195 77.7147 676.219 77.544C677.243 77.3733 678.651 77.5013 680.443 77.928C680.358 78.2693 680.102 78.9093 679.675 79.848C679.248 80.7013 678.907 81.256 678.651 81.512C678.139 82.3653 677.115 83.816 675.579 85.864C674.043 87.912 672.379 90.1307 670.587 92.52C668.88 94.824 667.259 97 665.723 99.048C664.272 101.011 663.248 102.376 662.651 103.144C662.054 103.912 662.224 104.851 663.163 105.96C664.187 107.069 665.552 108.349 667.259 109.8C669.051 111.165 671.099 112.701 673.403 114.408C675.707 116.029 677.883 117.821 679.931 119.784C681.979 121.747 683.686 123.837 685.051 126.056C686.502 128.275 687.27 130.664 687.355 133.224C687.526 135.699 686.8 138.344 685.179 141.16C683.643 143.891 680.87 146.792 676.859 149.864C675.664 150.888 674.299 151.741 672.763 152.424C671.312 153.107 669.776 153.533 668.155 153.704C666.619 153.96 665.04 153.96 663.419 153.704C661.798 153.448 660.304 152.808 658.939 151.784Z" fill="black"/>
<path d="M489 187.016C489 187.016 490.791 191 493 191M489 187.016L493 178M489 187.016H497M493 191C495.209 191 497 187.016 497 187.016M493 191C493 180.6 495.667 184.011 497 187.016M493 191C493 185.923 493 178 493 178M497 187.016L493 178" stroke="black"/>
<path d="M369 187.016C369 187.016 370.791 191 373 191M369 187.016L373 178M369 187.016H377M373 191C375.209 191 377 187.016 377 187.016M373 191C373 180.6 375.667 184.011 377 187.016M373 191C373 185.923 373 178 373 178M377 187.016L373 178" stroke="black"/>
<path d="M106.264 186.584V188.792C107.693 189.475 109.507 189.816 111.704 189.816C113.901 189.816 115.555 189.475 116.664 188.792C117.773 188.088 118.328 187.107 118.328 185.848C118.328 184.568 117.805 183.619 116.76 183C115.715 182.381 114.051 181.859 111.768 181.432C109.485 180.984 107.768 180.397 106.616 179.672C105.485 178.947 104.92 177.805 104.92 176.248C104.92 172.899 107.405 171.224 112.376 171.224C115.021 171.224 117.208 171.704 118.936 172.664C119.256 172.856 119.416 173.08 119.416 173.336V175.96C119.416 176.173 119.331 176.355 119.16 176.504C118.989 176.632 118.787 176.696 118.552 176.696C118.317 176.696 118.115 176.632 117.944 176.504C117.773 176.355 117.688 176.173 117.688 175.96V173.752C116.216 173.069 114.467 172.728 112.44 172.728C110.435 172.728 108.963 173.016 108.024 173.592C107.107 174.168 106.648 175.053 106.648 176.248C106.648 177.379 107.245 178.221 108.44 178.776C109.251 179.181 110.339 179.533 111.704 179.832C113.091 180.109 114.072 180.323 114.648 180.472C115.224 180.621 115.896 180.856 116.664 181.176C117.432 181.475 118.029 181.816 118.456 182.2C118.883 182.584 119.256 183.096 119.576 183.736C119.896 184.355 120.056 185.069 120.056 185.88C120.056 187.544 119.352 188.867 117.944 189.848C116.557 190.829 114.563 191.32 111.96 191.32C110.765 191.32 109.475 191.192 108.088 190.936C106.701 190.659 105.656 190.296 104.952 189.848C104.675 189.677 104.536 189.464 104.536 189.208V186.584C104.536 186.371 104.621 186.2 104.792 186.072C104.963 185.923 105.165 185.848 105.4 185.848C105.635 185.848 105.837 185.923 106.008 186.072C106.179 186.2 106.264 186.371 106.264 186.584ZM128.956 189.848C130.257 189.848 131.313 189.4 132.124 188.504C132.956 187.608 133.372 186.456 133.372 185.048C133.372 183.619 132.956 182.456 132.124 181.56C131.313 180.643 130.257 180.184 128.956 180.184C127.655 180.184 126.588 180.643 125.756 181.56C124.945 182.456 124.54 183.619 124.54 185.048C124.54 186.456 124.945 187.608 125.756 188.504C126.588 189.4 127.655 189.848 128.956 189.848ZM124.508 189.56C123.377 188.365 122.812 186.851 122.812 185.016C122.812 183.181 123.388 181.677 124.54 180.504C125.692 179.309 127.164 178.712 128.956 178.712C130.748 178.712 132.209 179.309 133.34 180.504C134.492 181.677 135.068 183.192 135.068 185.048C135.068 186.883 134.492 188.387 133.34 189.56C132.209 190.733 130.737 191.32 128.924 191.32C127.132 191.32 125.66 190.733 124.508 189.56ZM137.084 198.232C136.85 198.296 136.647 198.328 136.476 198.328C136.306 198.328 136.156 198.264 136.028 198.136C135.879 198.008 135.804 197.837 135.804 197.624C135.804 197.24 136.05 196.984 136.54 196.856C137.65 196.515 138.418 195.875 138.844 194.936C139.271 194.019 139.484 192.771 139.484 191.192V180.536H137.532C137.319 180.536 137.138 180.472 136.988 180.344C136.86 180.195 136.796 180.013 136.796 179.8C136.796 179.587 136.86 179.405 136.988 179.256C137.138 179.107 137.319 179.032 137.532 179.032H139.484V171.8C139.484 169.944 139.868 168.632 140.636 167.864C141.426 167.075 142.631 166.68 144.252 166.68C145.874 166.68 147.26 167.032 148.412 167.736C148.668 167.885 148.796 168.077 148.796 168.312V171.064C148.796 171.277 148.711 171.459 148.54 171.608C148.37 171.736 148.167 171.8 147.932 171.8C147.698 171.8 147.495 171.736 147.324 171.608C147.154 171.459 147.068 171.277 147.068 171.064V168.664C146.322 168.323 145.394 168.152 144.284 168.152C143.175 168.152 142.375 168.44 141.884 169.016C141.415 169.571 141.18 170.509 141.18 171.832V179.032H146.748C146.962 179.032 147.132 179.107 147.26 179.256C147.41 179.405 147.484 179.587 147.484 179.8C147.484 180.013 147.41 180.195 147.26 180.344C147.132 180.472 146.962 180.536 146.748 180.536H141.18V191.192C141.18 193.091 140.892 194.605 140.316 195.736C139.74 196.867 138.663 197.699 137.084 198.232ZM158.405 188.952C158.575 188.845 158.767 188.813 158.981 188.856C159.215 188.899 159.375 188.995 159.461 189.144C159.546 189.272 159.589 189.389 159.589 189.496C159.589 189.816 159.471 190.051 159.237 190.2C157.957 190.947 156.581 191.32 155.109 191.32C153.637 191.32 152.581 191.021 151.941 190.424C151.301 189.805 150.981 188.792 150.981 187.384V180.536H149.189C148.975 180.536 148.794 180.472 148.645 180.344C148.517 180.195 148.453 180.013 148.453 179.8C148.453 179.587 148.517 179.405 148.645 179.256C148.794 179.107 148.975 179.032 149.189 179.032H150.981V174.456C150.981 174.243 151.066 174.072 151.237 173.944C151.407 173.795 151.61 173.72 151.845 173.72C152.079 173.72 152.282 173.795 152.453 173.944C152.623 174.072 152.709 174.243 152.709 174.456V179.032H158.085C158.298 179.032 158.469 179.107 158.597 179.256C158.746 179.405 158.821 179.587 158.821 179.8C158.821 180.013 158.746 180.195 158.597 180.344C158.469 180.472 158.298 180.536 158.085 180.536H152.709V187.384C152.709 188.28 152.89 188.92 153.253 189.304C153.637 189.667 154.33 189.848 155.333 189.848C156.357 189.848 157.381 189.549 158.405 188.952ZM174.274 190.712C174.124 191.117 173.836 191.32 173.41 191.32C173.004 191.32 172.748 191.128 172.642 190.744L169.666 181.912L166.69 190.744C166.583 191.128 166.316 191.32 165.89 191.32C165.484 191.32 165.207 191.128 165.058 190.744L160.866 179.832C160.823 179.725 160.802 179.619 160.802 179.512C160.802 179.192 160.994 178.957 161.378 178.808C161.506 178.744 161.644 178.712 161.794 178.712C162.135 178.755 162.359 178.904 162.466 179.16L165.826 188.12L168.834 179.224C168.94 178.883 169.207 178.712 169.634 178.712C170.082 178.712 170.359 178.883 170.466 179.224L173.506 188.152L176.866 179.16C176.994 178.84 177.154 178.68 177.346 178.68C177.559 178.68 177.751 178.723 177.922 178.808C178.306 178.957 178.498 179.192 178.498 179.512C178.498 179.619 178.476 179.725 178.434 179.832L174.274 190.712ZM189.173 186.04C187.765 185.656 186.56 185.464 185.557 185.464C184.576 185.464 183.765 185.656 183.125 186.04C182.506 186.424 182.197 186.968 182.197 187.672C182.197 188.355 182.4 188.888 182.805 189.272C183.21 189.656 183.765 189.848 184.469 189.848C186.432 189.848 188 188.781 189.173 186.648V186.04ZM191.733 189.496H192.981C193.194 189.496 193.365 189.571 193.493 189.72C193.642 189.869 193.717 190.051 193.717 190.264C193.717 190.477 193.642 190.659 193.493 190.808C193.365 190.936 193.194 191 192.981 191H191.573C190.805 191 190.208 190.829 189.781 190.488C189.376 190.147 189.173 189.667 189.173 189.048C189.173 188.941 189.184 188.824 189.205 188.696C188.074 190.445 186.432 191.32 184.277 191.32C183.082 191.32 182.144 191 181.461 190.36C180.8 189.72 180.469 188.835 180.469 187.704C180.469 186.552 180.917 185.656 181.813 185.016C182.73 184.355 183.861 184.024 185.205 184.024C186.57 184.024 187.893 184.248 189.173 184.696V182.488C189.173 181.464 188.8 180.803 188.053 180.504C187.477 180.291 186.677 180.184 185.653 180.184C184.65 180.184 183.722 180.355 182.869 180.696V182.712C182.869 182.925 182.784 183.107 182.613 183.256C182.442 183.384 182.24 183.448 182.005 183.448C181.77 183.448 181.568 183.384 181.397 183.256C181.226 183.107 181.141 182.925 181.141 182.712V180.28C181.141 180.003 181.28 179.789 181.557 179.64C182.602 179.021 183.989 178.712 185.717 178.712C187.445 178.712 188.736 179 189.589 179.576C190.442 180.131 190.869 181.101 190.869 182.488V188.888C190.869 189.293 191.157 189.496 191.733 189.496ZM194.459 179.032H196.091C197.435 179.032 198.129 179.757 198.171 181.208C199.323 179.544 200.689 178.712 202.267 178.712C203.163 178.712 203.921 178.883 204.539 179.224C204.838 179.395 204.987 179.619 204.987 179.896V182.584C204.987 182.797 204.902 182.979 204.731 183.128C204.561 183.256 204.358 183.32 204.123 183.32C203.889 183.32 203.686 183.256 203.515 183.128C203.345 182.979 203.259 182.797 203.259 182.584V180.344C202.982 180.237 202.566 180.184 202.011 180.184C201.457 180.184 200.827 180.451 200.123 180.984C199.419 181.496 198.811 182.264 198.299 183.288V190.584C198.299 190.797 198.214 190.968 198.043 191.096C197.873 191.245 197.67 191.32 197.435 191.32C197.201 191.32 196.998 191.245 196.827 191.096C196.657 190.968 196.571 190.797 196.571 190.584V181.144C196.571 180.739 196.358 180.536 195.931 180.536H194.459C194.246 180.536 194.065 180.472 193.915 180.344C193.787 180.195 193.723 180.013 193.723 179.8C193.723 179.587 193.787 179.405 193.915 179.256C194.065 179.107 194.246 179.032 194.459 179.032ZM216.635 183.96C216.571 182.808 216.229 181.891 215.611 181.208C215.013 180.525 214.139 180.184 212.987 180.184C211.856 180.184 210.907 180.536 210.139 181.24C209.371 181.923 208.891 182.829 208.699 183.96H216.635ZM216.699 187.928C216.848 187.672 217.019 187.544 217.211 187.544C217.403 187.544 217.595 187.597 217.787 187.704C217.979 187.789 218.107 187.939 218.171 188.152C218.256 188.344 218.245 188.525 218.139 188.696C217.051 190.445 215.323 191.32 212.955 191.32C211.077 191.32 209.595 190.723 208.507 189.528C207.44 188.312 206.907 186.787 206.907 184.952C206.907 183.117 207.461 181.624 208.571 180.472C209.68 179.299 211.141 178.712 212.955 178.712C214.768 178.712 216.112 179.256 216.987 180.344C217.883 181.432 218.331 182.883 218.331 184.696C218.331 185.187 218.053 185.432 217.499 185.432L208.635 185.464C208.72 186.787 209.147 187.853 209.915 188.664C210.704 189.453 211.717 189.848 212.955 189.848C214.619 189.848 215.867 189.208 216.699 187.928ZM231.68 173.048V189.496H236.576C239.05 189.496 240.981 188.781 242.368 187.352C243.776 185.901 244.48 183.896 244.48 181.336C244.48 178.755 243.765 176.728 242.336 175.256C240.906 173.784 238.986 173.048 236.576 173.048H231.68ZM229.952 173.048H228.032C227.818 173.048 227.637 172.984 227.488 172.856C227.36 172.707 227.296 172.525 227.296 172.312C227.296 172.099 227.36 171.917 227.488 171.768C227.637 171.619 227.818 171.544 228.032 171.544H236.576C239.477 171.544 241.802 172.429 243.552 174.2C245.322 175.949 246.208 178.317 246.208 181.304C246.208 184.291 245.344 186.659 243.616 188.408C241.888 190.136 239.541 191 236.576 191H230.784C230.229 191 229.952 190.755 229.952 190.264V173.048ZM258.791 183.96C258.727 182.808 258.385 181.891 257.767 181.208C257.169 180.525 256.295 180.184 255.143 180.184C254.012 180.184 253.063 180.536 252.295 181.24C251.527 181.923 251.047 182.829 250.855 183.96H258.791ZM258.855 187.928C259.004 187.672 259.175 187.544 259.367 187.544C259.559 187.544 259.751 187.597 259.943 187.704C260.135 187.789 260.263 187.939 260.327 188.152C260.412 188.344 260.401 188.525 260.295 188.696C259.207 190.445 257.479 191.32 255.111 191.32C253.233 191.32 251.751 190.723 250.663 189.528C249.596 188.312 249.063 186.787 249.063 184.952C249.063 183.117 249.617 181.624 250.727 180.472C251.836 179.299 253.297 178.712 255.111 178.712C256.924 178.712 258.268 179.256 259.143 180.344C260.039 181.432 260.487 182.883 260.487 184.696C260.487 185.187 260.209 185.432 259.655 185.432L250.791 185.464C250.876 186.787 251.303 187.853 252.071 188.664C252.86 189.453 253.873 189.848 255.111 189.848C256.775 189.848 258.023 189.208 258.855 187.928ZM272.891 179.16C273.041 178.84 273.211 178.68 273.403 178.68C273.915 178.68 274.267 178.872 274.459 179.256C274.502 179.363 274.523 179.469 274.523 179.576C274.523 179.661 274.502 179.747 274.459 179.832L269.211 190.808C269.041 191.149 268.763 191.32 268.379 191.32C268.017 191.32 267.75 191.149 267.579 190.808L262.299 179.832C262.257 179.747 262.235 179.651 262.235 179.544C262.235 179.224 262.427 178.979 262.811 178.808C262.982 178.723 263.163 178.68 263.355 178.68C263.569 178.68 263.75 178.84 263.899 179.16L268.411 188.888L272.891 179.16ZM286.291 183.96C286.227 182.808 285.885 181.891 285.267 181.208C284.669 180.525 283.795 180.184 282.643 180.184C281.512 180.184 280.563 180.536 279.795 181.24C279.027 181.923 278.547 182.829 278.355 183.96H286.291ZM286.355 187.928C286.504 187.672 286.675 187.544 286.867 187.544C287.059 187.544 287.251 187.597 287.443 187.704C287.635 187.789 287.763 187.939 287.827 188.152C287.912 188.344 287.901 188.525 287.795 188.696C286.707 190.445 284.979 191.32 282.611 191.32C280.733 191.32 279.251 190.723 278.163 189.528C277.096 188.312 276.563 186.787 276.563 184.952C276.563 183.117 277.117 181.624 278.227 180.472C279.336 179.299 280.797 178.712 282.611 178.712C284.424 178.712 285.768 179.256 286.643 180.344C287.539 181.432 287.987 182.883 287.987 184.696C287.987 185.187 287.709 185.432 287.155 185.432L278.291 185.464C278.376 186.787 278.803 187.853 279.571 188.664C280.36 189.453 281.373 189.848 282.611 189.848C284.275 189.848 285.523 189.208 286.355 187.928ZM294.209 189.496H295.457C295.67 189.496 295.841 189.571 295.969 189.72C296.118 189.869 296.193 190.051 296.193 190.264C296.193 190.477 296.118 190.659 295.969 190.808C295.841 190.936 295.67 191 295.457 191H294.209C292.481 191 291.617 190.307 291.617 188.92V168.504H289.505C289.291 168.504 289.12 168.44 288.992 168.312C288.843 168.163 288.768 167.981 288.768 167.768C288.768 167.555 288.843 167.373 288.992 167.224C289.12 167.075 289.291 167 289.505 167H292.481C292.715 167 292.918 167.075 293.089 167.224C293.259 167.373 293.345 167.555 293.345 167.768V188.888C293.345 189.293 293.633 189.496 294.209 189.496ZM303.987 189.848C305.289 189.848 306.345 189.4 307.155 188.504C307.987 187.608 308.403 186.456 308.403 185.048C308.403 183.619 307.987 182.456 307.155 181.56C306.345 180.643 305.289 180.184 303.987 180.184C302.686 180.184 301.619 180.643 300.787 181.56C299.977 182.456 299.571 183.619 299.571 185.048C299.571 186.456 299.977 187.608 300.787 188.504C301.619 189.4 302.686 189.848 303.987 189.848ZM299.539 189.56C298.409 188.365 297.843 186.851 297.843 185.016C297.843 183.181 298.419 181.677 299.571 180.504C300.723 179.309 302.195 178.712 303.987 178.712C305.779 178.712 307.241 179.309 308.371 180.504C309.523 181.677 310.099 183.192 310.099 185.048C310.099 186.883 309.523 188.387 308.371 189.56C307.241 190.733 305.769 191.32 303.955 191.32C302.163 191.32 300.691 190.733 299.539 189.56ZM316.078 181.304C317.188 179.576 318.66 178.712 320.494 178.712C322.35 178.712 323.758 179.309 324.718 180.504C325.7 181.677 326.19 183.171 326.19 184.984C326.19 186.797 325.689 188.312 324.686 189.528C323.705 190.723 322.329 191.32 320.558 191.32C318.809 191.32 317.358 190.712 316.206 189.496V197.592C316.206 197.805 316.121 197.976 315.95 198.104C315.78 198.253 315.577 198.328 315.342 198.328C315.108 198.328 314.905 198.253 314.734 198.104C314.564 197.976 314.478 197.805 314.478 197.592V181.144C314.478 180.739 314.276 180.536 313.87 180.536H312.366C312.153 180.536 311.972 180.472 311.822 180.344C311.694 180.195 311.63 180.013 311.63 179.8C311.63 179.587 311.694 179.405 311.822 179.256C311.972 179.107 312.153 179.032 312.366 179.032H314.094C315.46 179.032 316.121 179.789 316.078 181.304ZM316.206 187.928C317.572 189.208 318.937 189.848 320.302 189.848C321.668 189.848 322.702 189.4 323.406 188.504C324.132 187.608 324.494 186.424 324.494 184.952C324.494 183.48 324.142 182.317 323.438 181.464C322.734 180.611 321.764 180.184 320.526 180.184C318.713 180.184 317.273 181.197 316.206 183.224V187.928ZM338.635 183.96C338.571 182.808 338.229 181.891 337.611 181.208C337.013 180.525 336.139 180.184 334.987 180.184C333.856 180.184 332.907 180.536 332.139 181.24C331.371 181.923 330.891 182.829 330.699 183.96H338.635ZM338.699 187.928C338.848 187.672 339.019 187.544 339.211 187.544C339.403 187.544 339.595 187.597 339.787 187.704C339.979 187.789 340.107 187.939 340.171 188.152C340.256 188.344 340.245 188.525 340.139 188.696C339.051 190.445 337.323 191.32 334.955 191.32C333.077 191.32 331.595 190.723 330.507 189.528C329.44 188.312 328.907 186.787 328.907 184.952C328.907 183.117 329.461 181.624 330.571 180.472C331.68 179.299 333.141 178.712 334.955 178.712C336.768 178.712 338.112 179.256 338.987 180.344C339.883 181.432 340.331 182.883 340.331 184.696C340.331 185.187 340.053 185.432 339.499 185.432L330.635 185.464C330.72 186.787 331.147 187.853 331.915 188.664C332.704 189.453 333.717 189.848 334.955 189.848C336.619 189.848 337.867 189.208 338.699 187.928ZM342.584 179.032H344.216C345.56 179.032 346.254 179.757 346.296 181.208C347.448 179.544 348.814 178.712 350.392 178.712C351.288 178.712 352.046 178.883 352.664 179.224C352.963 179.395 353.112 179.619 353.112 179.896V182.584C353.112 182.797 353.027 182.979 352.856 183.128C352.686 183.256 352.483 183.32 352.248 183.32C352.014 183.32 351.811 183.256 351.64 183.128C351.47 182.979 351.384 182.797 351.384 182.584V180.344C351.107 180.237 350.691 180.184 350.136 180.184C349.582 180.184 348.952 180.451 348.248 180.984C347.544 181.496 346.936 182.264 346.424 183.288V190.584C346.424 190.797 346.339 190.968 346.168 191.096C345.998 191.245 345.795 191.32 345.56 191.32C345.326 191.32 345.123 191.245 344.952 191.096C344.782 190.968 344.696 190.797 344.696 190.584V181.144C344.696 180.739 344.483 180.536 344.056 180.536H342.584C342.371 180.536 342.19 180.472 342.04 180.344C341.912 180.195 341.848 180.013 341.848 179.8C341.848 179.587 341.912 179.405 342.04 179.256C342.19 179.107 342.371 179.032 342.584 179.032Z" fill="black"/>
<path d="M517.264 190.584V173.048H515.344C515.131 173.048 514.949 172.984 514.8 172.856C514.672 172.707 514.608 172.525 514.608 172.312C514.608 172.099 514.672 171.917 514.8 171.768C514.949 171.619 515.131 171.544 515.344 171.544H518C518.341 171.544 518.619 171.672 518.832 171.928L526.864 182.904L534.864 171.96C535.056 171.683 535.323 171.544 535.664 171.544H538.384C538.597 171.544 538.768 171.619 538.896 171.768C539.045 171.917 539.12 172.099 539.12 172.312C539.12 172.525 539.045 172.707 538.896 172.856C538.768 172.984 538.597 173.048 538.384 173.048H536.464V189.016C536.464 189.336 536.709 189.496 537.2 189.496H538.384C538.597 189.496 538.768 189.571 538.896 189.72C539.045 189.869 539.12 190.051 539.12 190.264C539.12 190.477 539.045 190.659 538.896 190.808C538.768 190.936 538.597 191 538.384 191H537.2C535.557 191 534.736 190.339 534.736 189.016V174.904L527.568 184.696C527.397 184.931 527.163 185.048 526.864 185.048C526.565 185.048 526.331 184.931 526.16 184.696L518.992 174.904V190.584C518.992 190.797 518.907 190.968 518.736 191.096C518.565 191.245 518.363 191.32 518.128 191.32C517.893 191.32 517.691 191.245 517.52 191.096C517.349 190.968 517.264 190.797 517.264 190.584ZM553.919 189.496H555.423C555.636 189.496 555.807 189.571 555.935 189.72C556.084 189.848 556.159 190.019 556.159 190.232C556.159 190.445 556.084 190.627 555.935 190.776C555.807 190.925 555.636 191 555.423 191H553.695C552.372 191 551.711 190.275 551.711 188.824C550.431 190.488 548.82 191.32 546.879 191.32C545.727 191.32 544.777 191.032 544.031 190.456C543.305 189.859 542.943 188.995 542.943 187.864V181.144C542.943 180.739 542.655 180.536 542.079 180.536H540.831C540.617 180.536 540.436 180.461 540.287 180.312C540.159 180.163 540.095 179.981 540.095 179.768C540.095 179.555 540.159 179.384 540.287 179.256C540.436 179.107 540.617 179.032 540.831 179.032H542.079C543.807 179.032 544.671 179.725 544.671 181.112V187.864C544.671 188.504 544.863 188.995 545.247 189.336C545.652 189.677 546.207 189.848 546.911 189.848C548.873 189.848 550.431 188.824 551.583 186.776V179.448C551.583 179.235 551.668 179.064 551.839 178.936C552.009 178.787 552.212 178.712 552.447 178.712C552.681 178.712 552.884 178.787 553.055 178.936C553.225 179.064 553.311 179.235 553.311 179.448V188.888C553.311 189.293 553.513 189.496 553.919 189.496ZM557.816 189.752V187.16C557.816 186.947 557.901 186.776 558.072 186.648C558.242 186.499 558.445 186.424 558.68 186.424C558.914 186.424 559.117 186.499 559.288 186.648C559.458 186.776 559.544 186.947 559.544 187.16V189.336C560.568 189.677 561.634 189.848 562.744 189.848C565.176 189.848 566.392 189.165 566.392 187.8C566.392 186.776 565.25 186.019 562.968 185.528C562.861 185.507 562.626 185.453 562.264 185.368C561.901 185.283 561.602 185.219 561.368 185.176C561.133 185.112 560.738 184.984 560.184 184.792C559.65 184.579 559.266 184.365 559.032 184.152C558.392 183.576 558.072 182.872 558.072 182.04C558.072 181.187 558.349 180.504 558.904 179.992C559.48 179.459 560.109 179.117 560.792 178.968C561.474 178.797 562.221 178.712 563.032 178.712C564.525 178.712 565.901 179 567.16 179.576C567.544 179.747 567.736 179.981 567.736 180.28V182.744C567.736 182.957 567.65 183.139 567.48 183.288C567.309 183.416 567.106 183.48 566.872 183.48C566.637 183.48 566.434 183.416 566.264 183.288C566.093 183.139 566.008 182.957 566.008 182.744V180.696C565.154 180.355 564.162 180.184 563.032 180.184C560.856 180.184 559.768 180.803 559.768 182.04C559.768 182.488 559.906 182.797 560.184 182.968C560.482 183.139 560.696 183.267 560.824 183.352C560.973 183.437 561.229 183.523 561.592 183.608C562.104 183.736 562.626 183.853 563.16 183.96C563.693 184.067 564.13 184.163 564.472 184.248C564.813 184.333 565.24 184.483 565.752 184.696C566.285 184.888 566.701 185.112 567 185.368C567.746 185.965 568.12 186.744 568.12 187.704C568.12 188.664 567.8 189.432 567.16 190.008C566.541 190.563 565.858 190.915 565.112 191.064C564.386 191.235 563.597 191.32 562.744 191.32C561.058 191.32 559.608 191.043 558.392 190.488C558.008 190.317 557.816 190.072 557.816 189.752ZM574.299 190.584C574.299 190.797 574.214 190.968 574.043 191.096C573.873 191.245 573.67 191.32 573.435 191.32C573.201 191.32 572.998 191.245 572.827 191.096C572.657 190.968 572.571 190.797 572.571 190.584V180.536H570.459C570.246 180.536 570.065 180.472 569.915 180.344C569.787 180.195 569.723 180.013 569.723 179.8C569.723 179.587 569.787 179.405 569.915 179.256C570.065 179.107 570.246 179.032 570.459 179.032H573.563C574.054 179.032 574.299 179.277 574.299 179.768V190.584ZM572.507 174.232C572.315 174.019 572.219 173.763 572.219 173.464C572.219 173.165 572.315 172.909 572.507 172.696C572.699 172.483 572.966 172.376 573.307 172.376C573.649 172.376 573.915 172.483 574.107 172.696C574.321 172.909 574.427 173.165 574.427 173.464C574.427 173.763 574.321 174.019 574.107 174.232C573.915 174.445 573.649 174.552 573.307 174.552C572.966 174.552 572.699 174.445 572.507 174.232ZM587.51 187.928C587.68 187.672 587.851 187.544 588.022 187.544C588.214 187.544 588.406 187.587 588.598 187.672C588.896 187.8 589.046 187.981 589.046 188.216C589.046 188.429 589.014 188.589 588.95 188.696C587.862 190.445 586.134 191.32 583.766 191.32C581.952 191.32 580.502 190.712 579.414 189.496C578.326 188.259 577.782 186.744 577.782 184.952C577.782 183.16 578.347 181.677 579.478 180.504C580.63 179.309 582.048 178.712 583.734 178.712C585.44 178.712 586.923 179.107 588.182 179.896C588.438 180.067 588.566 180.269 588.566 180.504V183.192C588.566 183.405 588.48 183.587 588.31 183.736C588.139 183.864 587.936 183.928 587.702 183.928C587.467 183.928 587.264 183.864 587.094 183.736C586.923 183.587 586.838 183.405 586.838 183.192V180.92C585.984 180.429 584.96 180.184 583.766 180.184C582.571 180.184 581.558 180.632 580.726 181.528C579.894 182.424 579.478 183.587 579.478 185.016C579.478 186.424 579.872 187.587 580.661 188.504C581.472 189.4 582.507 189.848 583.766 189.848C585.43 189.848 586.678 189.208 587.51 187.928ZM600.483 190.584V173.048H598.595C598.381 173.048 598.2 172.984 598.051 172.856C597.923 172.707 597.859 172.525 597.859 172.312C597.859 172.099 597.923 171.917 598.051 171.768C598.2 171.619 598.381 171.544 598.595 171.544H608.643C613.293 171.544 615.619 173.645 615.619 177.848C615.619 182.029 613.293 184.12 608.643 184.12H602.211V190.584C602.211 190.797 602.125 190.968 601.955 191.096C601.784 191.245 601.581 191.32 601.347 191.32C601.112 191.32 600.909 191.245 600.739 191.096C600.568 190.968 600.483 190.797 600.483 190.584ZM602.211 173.048V182.648H608.643C612.141 182.648 613.891 181.048 613.891 177.848C613.891 174.648 612.141 173.048 608.643 173.048H602.211ZM617.428 179.032H619.06C620.404 179.032 621.097 179.757 621.14 181.208C622.292 179.544 623.657 178.712 625.236 178.712C626.132 178.712 626.889 178.883 627.508 179.224C627.807 179.395 627.956 179.619 627.956 179.896V182.584C627.956 182.797 627.871 182.979 627.7 183.128C627.529 183.256 627.327 183.32 627.092 183.32C626.857 183.32 626.655 183.256 626.484 183.128C626.313 182.979 626.228 182.797 626.228 182.584V180.344C625.951 180.237 625.535 180.184 624.98 180.184C624.425 180.184 623.796 180.451 623.092 180.984C622.388 181.496 621.78 182.264 621.268 183.288V190.584C621.268 190.797 621.183 190.968 621.012 191.096C620.841 191.245 620.639 191.32 620.404 191.32C620.169 191.32 619.967 191.245 619.796 191.096C619.625 190.968 619.54 190.797 619.54 190.584V181.144C619.54 180.739 619.327 180.536 618.9 180.536H617.428C617.215 180.536 617.033 180.472 616.884 180.344C616.756 180.195 616.692 180.013 616.692 179.8C616.692 179.587 616.756 179.405 616.884 179.256C617.033 179.107 617.215 179.032 617.428 179.032ZM635.987 189.848C637.289 189.848 638.345 189.4 639.155 188.504C639.987 187.608 640.403 186.456 640.403 185.048C640.403 183.619 639.987 182.456 639.155 181.56C638.345 180.643 637.289 180.184 635.987 180.184C634.686 180.184 633.619 180.643 632.787 181.56C631.977 182.456 631.571 183.619 631.571 185.048C631.571 186.456 631.977 187.608 632.787 188.504C633.619 189.4 634.686 189.848 635.987 189.848ZM631.539 189.56C630.409 188.365 629.843 186.851 629.843 185.016C629.843 183.181 630.419 181.677 631.571 180.504C632.723 179.309 634.195 178.712 635.987 178.712C637.779 178.712 639.241 179.309 640.371 180.504C641.523 181.677 642.099 183.192 642.099 185.048C642.099 186.883 641.523 188.387 640.371 189.56C639.241 190.733 637.769 191.32 635.955 191.32C634.163 191.32 632.691 190.733 631.539 189.56ZM650.446 180.184C649.23 180.184 648.26 180.621 647.534 181.496C646.809 182.371 646.446 183.555 646.446 185.048C646.446 186.541 646.798 187.715 647.502 188.568C648.228 189.421 649.209 189.848 650.446 189.848C652.238 189.848 653.668 188.835 654.734 186.808V182.104C654.18 181.571 653.508 181.123 652.718 180.76C651.95 180.376 651.193 180.184 650.446 180.184ZM654.734 168.504H652.622C652.409 168.504 652.228 168.44 652.078 168.312C651.95 168.163 651.886 167.981 651.886 167.768C651.886 167.555 651.95 167.373 652.078 167.224C652.228 167.075 652.409 167 652.622 167H655.598C655.833 167 656.036 167.075 656.206 167.224C656.377 167.373 656.462 167.555 656.462 167.768V188.888C656.462 189.293 656.676 189.496 657.102 189.496H658.574C658.788 189.496 658.958 189.571 659.086 189.72C659.236 189.848 659.31 190.019 659.31 190.232C659.31 190.445 659.236 190.627 659.086 190.776C658.958 190.925 658.788 191 658.574 191H656.878C655.492 191 654.82 190.243 654.862 188.728C654.393 189.453 653.774 190.072 653.006 190.584C652.26 191.075 651.406 191.32 650.446 191.32C648.548 191.32 647.118 190.712 646.158 189.496C645.22 188.28 644.75 186.776 644.75 184.984C644.75 183.192 645.241 181.699 646.222 180.504C647.225 179.309 648.59 178.712 650.318 178.712C652.046 178.712 653.518 179.277 654.734 180.408V168.504ZM673.45 189.496H674.954C675.167 189.496 675.338 189.571 675.466 189.72C675.615 189.848 675.69 190.019 675.69 190.232C675.69 190.445 675.615 190.627 675.466 190.776C675.338 190.925 675.167 191 674.954 191H673.226C671.903 191 671.242 190.275 671.242 188.824C669.962 190.488 668.351 191.32 666.41 191.32C665.258 191.32 664.308 191.032 663.562 190.456C662.836 189.859 662.474 188.995 662.474 187.864V181.144C662.474 180.739 662.186 180.536 661.61 180.536H660.362C660.148 180.536 659.967 180.461 659.818 180.312C659.69 180.163 659.626 179.981 659.626 179.768C659.626 179.555 659.69 179.384 659.818 179.256C659.967 179.107 660.148 179.032 660.362 179.032H661.61C663.338 179.032 664.202 179.725 664.202 181.112V187.864C664.202 188.504 664.394 188.995 664.778 189.336C665.183 189.677 665.738 189.848 666.442 189.848C668.404 189.848 669.962 188.824 671.114 186.776V179.448C671.114 179.235 671.199 179.064 671.37 178.936C671.54 178.787 671.743 178.712 671.978 178.712C672.212 178.712 672.415 178.787 672.586 178.936C672.756 179.064 672.842 179.235 672.842 179.448V188.888C672.842 189.293 673.044 189.496 673.45 189.496ZM686.947 187.928C687.118 187.672 687.288 187.544 687.459 187.544C687.651 187.544 687.843 187.587 688.035 187.672C688.334 187.8 688.483 187.981 688.483 188.216C688.483 188.429 688.451 188.589 688.387 188.696C687.299 190.445 685.571 191.32 683.203 191.32C681.39 191.32 679.939 190.712 678.851 189.496C677.763 188.259 677.219 186.744 677.219 184.952C677.219 183.16 677.784 181.677 678.915 180.504C680.067 179.309 681.486 178.712 683.171 178.712C684.878 178.712 686.36 179.107 687.619 179.896C687.875 180.067 688.003 180.269 688.003 180.504V183.192C688.003 183.405 687.918 183.587 687.747 183.736C687.576 183.864 687.374 183.928 687.139 183.928C686.904 183.928 686.702 183.864 686.531 183.736C686.36 183.587 686.275 183.405 686.275 183.192V180.92C685.422 180.429 684.398 180.184 683.203 180.184C682.008 180.184 680.995 180.632 680.163 181.528C679.331 182.424 678.915 183.587 678.915 185.016C678.915 186.424 679.31 187.587 680.099 188.504C680.91 189.4 681.944 189.848 683.203 189.848C684.867 189.848 686.115 189.208 686.947 187.928ZM700.697 183.96C700.633 182.808 700.292 181.891 699.673 181.208C699.076 180.525 698.201 180.184 697.049 180.184C695.918 180.184 694.969 180.536 694.201 181.24C693.433 181.923 692.953 182.829 692.761 183.96H700.697ZM700.761 187.928C700.91 187.672 701.081 187.544 701.273 187.544C701.465 187.544 701.657 187.597 701.849 187.704C702.041 187.789 702.169 187.939 702.233 188.152C702.318 188.344 702.308 188.525 702.201 188.696C701.113 190.445 699.385 191.32 697.017 191.32C695.14 191.32 693.657 190.723 692.569 189.528C691.502 188.312 690.969 186.787 690.969 184.952C690.969 183.117 691.524 181.624 692.633 180.472C693.742 179.299 695.204 178.712 697.017 178.712C698.83 178.712 700.174 179.256 701.049 180.344C701.945 181.432 702.393 182.883 702.393 184.696C702.393 185.187 702.116 185.432 701.561 185.432L692.697 185.464C692.782 186.787 693.209 187.853 693.977 188.664C694.766 189.453 695.78 189.848 697.017 189.848C698.681 189.848 699.929 189.208 700.761 187.928ZM704.647 179.032H706.279C707.623 179.032 708.316 179.757 708.359 181.208C709.511 179.544 710.876 178.712 712.455 178.712C713.351 178.712 714.108 178.883 714.727 179.224C715.025 179.395 715.175 179.619 715.175 179.896V182.584C715.175 182.797 715.089 182.979 714.919 183.128C714.748 183.256 714.545 183.32 714.311 183.32C714.076 183.32 713.873 183.256 713.703 183.128C713.532 182.979 713.447 182.797 713.447 182.584V180.344C713.169 180.237 712.753 180.184 712.199 180.184C711.644 180.184 711.015 180.451 710.311 180.984C709.607 181.496 708.999 182.264 708.487 183.288V190.584C708.487 190.797 708.401 190.968 708.231 191.096C708.06 191.245 707.857 191.32 707.623 191.32C707.388 191.32 707.185 191.245 707.015 191.096C706.844 190.968 706.759 190.797 706.759 190.584V181.144C706.759 180.739 706.545 180.536 706.119 180.536H704.647C704.433 180.536 704.252 180.472 704.103 180.344C703.975 180.195 703.911 180.013 703.911 179.8C703.911 179.587 703.975 179.405 704.103 179.256C704.252 179.107 704.433 179.032 704.647 179.032Z" fill="black"/>
<path d="M402.08 173.816L397.44 183.416H406.752L402.08 173.816ZM399.36 171.544H402.208C402.549 171.544 402.784 171.672 402.912 171.928L411.968 190.232C412.011 190.317 412.032 190.413 412.032 190.52C412.032 190.883 411.861 191.128 411.52 191.256C411.392 191.299 411.275 191.32 411.168 191.32C410.805 191.32 410.56 191.181 410.432 190.904L407.456 184.888H396.736L393.76 190.904C393.568 191.331 393.205 191.448 392.672 191.256C392.331 191.128 392.16 190.893 392.16 190.552C392.16 190.467 392.181 190.371 392.224 190.264L400.736 173.048H399.36C399.147 173.048 398.965 172.984 398.816 172.856C398.688 172.707 398.624 172.525 398.624 172.312C398.624 172.099 398.688 171.917 398.816 171.768C398.965 171.619 399.147 171.544 399.36 171.544ZM412.834 179.032H414.466C415.81 179.032 416.504 179.757 416.546 181.208C417.698 179.544 419.064 178.712 420.642 178.712C421.538 178.712 422.296 178.883 422.914 179.224C423.213 179.395 423.362 179.619 423.362 179.896V182.584C423.362 182.797 423.277 182.979 423.106 183.128C422.936 183.256 422.733 183.32 422.498 183.32C422.264 183.32 422.061 183.256 421.89 183.128C421.72 182.979 421.634 182.797 421.634 182.584V180.344C421.357 180.237 420.941 180.184 420.386 180.184C419.832 180.184 419.202 180.451 418.498 180.984C417.794 181.496 417.186 182.264 416.674 183.288V190.584C416.674 190.797 416.589 190.968 416.418 191.096C416.248 191.245 416.045 191.32 415.81 191.32C415.576 191.32 415.373 191.245 415.202 191.096C415.032 190.968 414.946 190.797 414.946 190.584V181.144C414.946 180.739 414.733 180.536 414.306 180.536H412.834C412.621 180.536 412.44 180.472 412.29 180.344C412.162 180.195 412.098 180.013 412.098 179.8C412.098 179.587 412.162 179.405 412.29 179.256C412.44 179.107 412.621 179.032 412.834 179.032ZM434.53 188.952C434.7 188.845 434.892 188.813 435.106 188.856C435.34 188.899 435.5 188.995 435.586 189.144C435.671 189.272 435.714 189.389 435.714 189.496C435.714 189.816 435.596 190.051 435.362 190.2C434.082 190.947 432.706 191.32 431.234 191.32C429.762 191.32 428.706 191.021 428.066 190.424C427.426 189.805 427.106 188.792 427.106 187.384V180.536H425.314C425.1 180.536 424.919 180.472 424.77 180.344C424.642 180.195 424.578 180.013 424.578 179.8C424.578 179.587 424.642 179.405 424.77 179.256C424.919 179.107 425.1 179.032 425.314 179.032H427.106V174.456C427.106 174.243 427.191 174.072 427.362 173.944C427.532 173.795 427.735 173.72 427.97 173.72C428.204 173.72 428.407 173.795 428.578 173.944C428.748 174.072 428.834 174.243 428.834 174.456V179.032H434.21C434.423 179.032 434.594 179.107 434.722 179.256C434.871 179.405 434.946 179.587 434.946 179.8C434.946 180.013 434.871 180.195 434.722 180.344C434.594 180.472 434.423 180.536 434.21 180.536H428.834V187.384C428.834 188.28 429.015 188.92 429.378 189.304C429.762 189.667 430.455 189.848 431.458 189.848C432.482 189.848 433.506 189.549 434.53 188.952ZM440.831 190.584C440.831 190.797 440.745 190.968 440.575 191.096C440.404 191.245 440.201 191.32 439.967 191.32C439.732 191.32 439.529 191.245 439.359 191.096C439.188 190.968 439.103 190.797 439.103 190.584V180.536H436.991C436.777 180.536 436.596 180.472 436.447 180.344C436.319 180.195 436.255 180.013 436.255 179.8C436.255 179.587 436.319 179.405 436.447 179.256C436.596 179.107 436.777 179.032 436.991 179.032H440.095C440.585 179.032 440.831 179.277 440.831 179.768V190.584ZM439.039 174.232C438.847 174.019 438.751 173.763 438.751 173.464C438.751 173.165 438.847 172.909 439.039 172.696C439.231 172.483 439.497 172.376 439.839 172.376C440.18 172.376 440.447 172.483 440.639 172.696C440.852 172.909 440.959 173.165 440.959 173.464C440.959 173.763 440.852 174.019 440.639 174.232C440.447 174.445 440.18 174.552 439.839 174.552C439.497 174.552 439.231 174.445 439.039 174.232ZM444.441 189.752V187.16C444.441 186.947 444.526 186.776 444.697 186.648C444.867 186.499 445.07 186.424 445.305 186.424C445.539 186.424 445.742 186.499 445.913 186.648C446.083 186.776 446.169 186.947 446.169 187.16V189.336C447.193 189.677 448.259 189.848 449.369 189.848C451.801 189.848 453.017 189.165 453.017 187.8C453.017 186.776 451.875 186.019 449.593 185.528C449.486 185.507 449.251 185.453 448.889 185.368C448.526 185.283 448.227 185.219 447.993 185.176C447.758 185.112 447.363 184.984 446.809 184.792C446.275 184.579 445.891 184.365 445.657 184.152C445.017 183.576 444.697 182.872 444.697 182.04C444.697 181.187 444.974 180.504 445.529 179.992C446.105 179.459 446.734 179.117 447.417 178.968C448.099 178.797 448.846 178.712 449.657 178.712C451.15 178.712 452.526 179 453.785 179.576C454.169 179.747 454.361 179.981 454.361 180.28V182.744C454.361 182.957 454.275 183.139 454.105 183.288C453.934 183.416 453.731 183.48 453.497 183.48C453.262 183.48 453.059 183.416 452.889 183.288C452.718 183.139 452.633 182.957 452.633 182.744V180.696C451.779 180.355 450.787 180.184 449.657 180.184C447.481 180.184 446.393 180.803 446.393 182.04C446.393 182.488 446.531 182.797 446.809 182.968C447.107 183.139 447.321 183.267 447.449 183.352C447.598 183.437 447.854 183.523 448.217 183.608C448.729 183.736 449.251 183.853 449.785 183.96C450.318 184.067 450.755 184.163 451.097 184.248C451.438 184.333 451.865 184.483 452.377 184.696C452.91 184.888 453.326 185.112 453.625 185.368C454.371 185.965 454.745 186.744 454.745 187.704C454.745 188.664 454.425 189.432 453.785 190.008C453.166 190.563 452.483 190.915 451.737 191.064C451.011 191.235 450.222 191.32 449.369 191.32C447.683 191.32 446.233 191.043 445.017 190.488C444.633 190.317 444.441 190.072 444.441 189.752ZM466.748 188.952C466.919 188.845 467.111 188.813 467.324 188.856C467.559 188.899 467.719 188.995 467.804 189.144C467.89 189.272 467.932 189.389 467.932 189.496C467.932 189.816 467.815 190.051 467.58 190.2C466.3 190.947 464.924 191.32 463.452 191.32C461.98 191.32 460.924 191.021 460.284 190.424C459.644 189.805 459.324 188.792 459.324 187.384V180.536H457.532C457.319 180.536 457.138 180.472 456.988 180.344C456.86 180.195 456.796 180.013 456.796 179.8C456.796 179.587 456.86 179.405 456.988 179.256C457.138 179.107 457.319 179.032 457.532 179.032H459.324V174.456C459.324 174.243 459.41 174.072 459.58 173.944C459.751 173.795 459.954 173.72 460.188 173.72C460.423 173.72 460.626 173.795 460.796 173.944C460.967 174.072 461.052 174.243 461.052 174.456V179.032H466.428C466.642 179.032 466.812 179.107 466.94 179.256C467.09 179.405 467.164 179.587 467.164 179.8C467.164 180.013 467.09 180.195 466.94 180.344C466.812 180.472 466.642 180.536 466.428 180.536H461.052V187.384C461.052 188.28 461.234 188.92 461.596 189.304C461.98 189.667 462.674 189.848 463.676 189.848C464.7 189.848 465.724 189.549 466.748 188.952Z" fill="black"/>
<path d="M77.2265 206.5L83 212.274L88.7735 206.5L83 200.726L77.2265 206.5ZM743.774 206.5L738 200.726L732.226 206.5L738 212.274L743.774 206.5ZM83 207.5H738V205.5H83V207.5Z" fill="#2C2C2C"/>
</svg>
