<svg width="667" height="213" viewBox="0 0 667 213" fill="none" xmlns="http://www.w3.org/2000/svg">
<path d="M366.375 10L305.625 194M430.5 62.6621L406.875 41.7241M406.875 162.276L468.975 106.441C471.675 103.903 471.675 99.4621 468.975 96.9241L453.45 82.9655M236.1 136.262L203.025 107.076C200.325 104.538 200.325 100.097 203.025 97.5586L265.125 41.7241M265.125 162.276L256.35 154.662" stroke="#FFBFBF" stroke-opacity="0.6" stroke-width="19" stroke-linecap="round" stroke-linejoin="round"/>
<path d="M79.792 151.784V77.928C79.792 77.672 79.92 77.4587 80.176 77.288C80.432 77.1173 80.7307 76.9467 81.072 76.776C81.4987 76.52 81.9253 76.3493 82.352 76.264C82.7787 76.1787 83.12 76.1787 83.376 76.264C83.632 76.3493 83.9733 76.5627 84.4 76.904C84.8267 77.16 85.2107 77.4587 85.552 77.8C85.9787 78.1413 86.32 78.5253 86.576 78.952C86.832 79.2933 86.96 79.5493 86.96 79.72V137.32C87.8133 136.211 89.2213 135.485 91.184 135.144C93.1467 134.717 95.4933 134.461 98.224 134.376C100.955 134.205 103.899 134.12 107.056 134.12C110.299 134.035 113.584 133.864 116.912 133.608C120.24 133.267 123.483 132.712 126.64 131.944C129.883 131.091 132.827 129.853 135.472 128.232C138.117 126.781 139.867 126.056 140.72 126.056C141.659 125.971 142 126.397 141.744 127.336C141.488 128.189 140.677 129.341 139.312 130.792C137.947 132.243 136.24 133.736 134.192 135.272C132.144 136.723 129.84 138.003 127.28 139.112C124.72 140.136 122.075 140.733 119.344 140.904C118.661 140.904 117.637 140.904 116.272 140.904C114.907 140.904 113.285 140.947 111.408 141.032C109.616 141.032 107.739 141.032 105.776 141.032C103.899 140.947 102.064 140.904 100.272 140.904H95.536C94.1707 140.904 93.1467 140.904 92.464 140.904C91.6107 141.501 90.7573 142.568 89.904 144.104C89.0507 145.555 88.112 146.963 87.088 148.328C86.064 149.693 84.9547 150.803 83.76 151.656C82.6507 152.509 81.328 152.552 79.792 151.784ZM153.308 151.784C152.711 150.589 152.54 149.309 152.796 147.944C153.052 146.579 153.607 145.341 154.46 144.232C155.313 143.037 156.337 142.013 157.532 141.16C158.727 140.221 159.964 139.709 161.244 139.624C162.524 139.539 163.761 139.837 164.956 140.52C166.151 141.203 167.089 142.525 167.772 144.488C168.284 145.683 168.327 146.835 167.9 147.944C167.559 149.139 166.919 150.163 165.98 151.016C165.041 151.869 163.975 152.552 162.78 153.064C161.585 153.661 160.391 154.045 159.196 154.216C158.001 154.387 156.849 154.259 155.74 153.832C154.716 153.491 153.905 152.808 153.308 151.784ZM232.94 133.736C232.855 133.395 232.556 132.797 232.044 131.944C231.617 131.005 231.276 130.408 231.02 130.152C230.252 129.811 228.844 129.341 226.796 128.744C224.833 128.061 222.7 127.336 220.396 126.568C218.092 125.715 215.916 124.947 213.868 124.264C211.82 123.581 210.369 123.112 209.516 122.856C209.345 122.771 208.919 122.557 208.236 122.216C207.553 121.789 206.785 121.363 205.932 120.936C205.079 120.424 204.311 119.997 203.628 119.656C202.945 119.315 202.476 119.144 202.22 119.144C200.94 119.144 199.703 119.955 198.508 121.576C197.399 123.197 196.247 125.203 195.052 127.592C193.857 129.896 192.62 132.371 191.34 135.016C190.06 137.661 188.609 140.093 186.988 142.312C185.367 144.445 183.617 146.109 181.74 147.304C179.863 148.499 177.729 148.755 175.34 148.072V144.488C175.852 143.891 176.62 142.952 177.644 141.672C178.668 140.307 179.82 138.813 181.1 137.192C182.465 135.485 183.873 133.736 185.324 131.944C186.775 130.152 188.14 128.403 189.42 126.696C190.7 124.989 191.809 123.496 192.748 122.216C193.772 120.851 194.54 119.827 195.052 119.144C195.905 118.035 196.033 116.413 195.436 114.28C194.924 112.147 194.071 109.885 192.876 107.496C191.767 105.107 190.529 102.717 189.164 100.328C187.884 97.8533 186.945 95.7627 186.348 94.056C185.836 92.264 185.879 90.984 186.476 90.216C187.159 89.448 188.908 89.5333 191.724 90.472C192.577 93.3733 193.857 96.36 195.564 99.432C197.356 102.504 199.575 104.893 202.22 106.6C204.439 105.149 206.529 103.229 208.492 100.84C210.455 98.3653 212.289 95.592 213.996 92.52C215.703 89.3627 217.239 86.0347 218.604 82.536C220.055 79.0373 221.335 75.5813 222.444 72.168C223.639 68.7547 224.663 65.512 225.516 62.44C226.369 59.368 227.052 56.7227 227.564 54.504C228.161 53.5653 228.929 52.84 229.868 52.328C230.892 51.7307 231.916 51.2613 232.94 50.92C233.367 51.5173 233.665 53.0533 233.836 55.528C234.007 57.9173 234.092 60.8613 234.092 64.36C234.092 67.7733 234.007 71.6133 233.836 75.88C233.751 80.1467 233.665 84.456 233.58 88.808C233.58 93.0747 233.623 97.256 233.708 101.352C233.793 105.448 233.964 109.075 234.22 112.232C234.561 115.389 235.031 117.949 235.628 119.912C236.311 121.875 237.207 122.856 238.316 122.856H249.196V129.256H240.108C238.913 129.256 238.444 130.067 238.7 131.688C238.956 133.224 239.596 135.187 240.62 137.576C241.644 139.965 242.796 142.611 244.076 145.512C245.441 148.499 246.593 151.357 247.532 154.088C248.471 156.819 248.983 159.251 249.068 161.384C249.239 163.603 248.641 165.181 247.276 166.12C247.02 166.291 246.423 166.376 245.484 166.376C244.545 166.376 243.905 166.291 243.564 166.12C243.308 164.84 242.668 162.664 241.644 159.592C240.62 156.52 239.511 153.235 238.316 149.736C237.207 146.323 236.097 143.123 234.988 140.136C233.964 137.064 233.281 134.931 232.94 133.736ZM214.892 117.48C215.319 117.736 216.087 118.12 217.196 118.632C218.391 119.059 219.628 119.571 220.908 120.168C222.273 120.765 223.596 121.32 224.876 121.832C226.156 122.259 227.052 122.6 227.564 122.856C227.735 122.941 227.991 122.984 228.332 122.984C228.759 122.984 229.057 122.941 229.228 122.856C229.569 120.04 229.569 116.499 229.228 112.232C228.972 107.88 228.588 103.485 228.076 99.048C227.649 94.5253 227.18 90.216 226.668 86.12C226.241 81.9387 225.943 78.6533 225.772 76.264L205.932 112.104C206.188 112.36 206.743 112.744 207.596 113.256C208.535 113.768 209.431 114.323 210.284 114.92C211.223 115.432 212.119 115.944 212.972 116.456C213.911 116.968 214.551 117.309 214.892 117.48ZM258.558 151.784C257.961 150.589 257.79 149.309 258.046 147.944C258.302 146.579 258.857 145.341 259.71 144.232C260.563 143.037 261.587 142.013 262.782 141.16C263.977 140.221 265.214 139.709 266.494 139.624C267.774 139.539 269.011 139.837 270.206 140.52C271.401 141.203 272.339 142.525 273.022 144.488C273.534 145.683 273.577 146.835 273.15 147.944C272.809 149.139 272.169 150.163 271.23 151.016C270.291 151.869 269.225 152.552 268.03 153.064C266.835 153.661 265.641 154.045 264.446 154.216C263.251 154.387 262.099 154.259 260.99 153.832C259.966 153.491 259.155 152.808 258.558 151.784ZM355.859 151.784C355.774 151.357 355.731 150.675 355.731 149.736C355.731 148.883 355.774 148.328 355.859 148.072C355.944 147.987 356.158 147.859 356.499 147.688C356.84 147.603 357.182 147.432 357.523 147.176C357.95 146.92 358.334 146.707 358.675 146.536C359.102 146.451 359.358 146.365 359.443 146.28C362.515 145.427 365.544 144.531 368.531 143.592C371.603 142.568 374.59 141.459 377.491 140.264C380.392 139.069 383.166 137.661 385.811 136.04C388.542 134.333 391.144 132.413 393.619 130.28C399.592 124.819 403.859 120.168 406.419 116.328C408.979 112.403 410.344 109.075 410.515 106.344C410.686 103.613 409.832 101.437 407.955 99.816C406.163 98.1947 403.859 97 401.043 96.232C398.227 95.3787 395.155 94.952 391.827 94.952C388.499 94.8667 385.384 95.0373 382.483 95.464C379.582 95.8053 377.15 96.36 375.187 97.128C373.224 97.896 372.2 98.7067 372.115 99.56L368.531 135.528C368.531 136.125 368.19 136.595 367.507 136.936C366.91 137.277 366.27 137.448 365.587 137.448C364.99 137.448 364.435 137.277 363.923 136.936C363.411 136.595 363.155 136.125 363.155 135.528V106.6H355.859C355.859 106.429 355.859 106.173 355.859 105.832C355.859 105.405 355.859 105.107 355.859 104.936C356.115 104.509 356.584 103.869 357.267 103.016C357.95 102.163 358.632 101.267 359.315 100.328C360.083 99.3893 360.808 98.4933 361.491 97.64C362.259 96.7867 362.814 96.232 363.155 95.976C363.24 95.1227 363.368 93.5867 363.539 91.368C363.71 89.064 363.88 86.6747 364.051 84.2C364.222 81.7253 364.392 79.3787 364.563 77.16C364.734 74.9413 364.862 73.4053 364.947 72.552C365.032 70.6747 364.819 69.352 364.307 68.584C363.795 67.7307 363.07 67.304 362.131 67.304C361.278 67.2187 360.296 67.4747 359.187 68.072C358.078 68.584 356.968 69.224 355.859 69.992C354.75 70.76 353.683 71.5707 352.659 72.424C351.72 73.192 350.995 73.7893 350.483 74.216C349.971 74.8987 348.99 75.9227 347.539 77.288C346.174 78.568 344.723 79.976 343.187 81.512C341.651 83.048 340.2 84.4987 338.835 85.864C337.47 87.2293 336.574 88.2107 336.147 88.808H330.643C330.046 86.76 330.43 84.6693 331.795 82.536C333.246 80.4027 335.379 78.184 338.195 75.88C341.096 73.576 344.467 71.3147 348.307 69.096C352.232 66.792 356.371 64.616 360.723 62.568C365.16 60.52 369.555 58.6427 373.907 56.936C378.259 55.2293 382.355 53.7787 386.195 52.584C390.035 51.304 393.406 50.3653 396.307 49.768C399.294 49.0853 401.427 48.872 402.707 49.128C403.902 49.384 404.67 50.0667 405.011 51.176C405.352 52.2853 405.438 53.5227 405.267 54.888C405.096 56.168 404.712 57.4907 404.115 58.856C403.603 60.136 403.134 61.1173 402.707 61.8C400.574 64.7867 398.568 67.5173 396.691 69.992C394.899 72.4667 393.064 74.8133 391.187 77.032C389.31 79.1653 387.262 81.3413 385.043 83.56C382.91 85.6933 380.435 88.04 377.619 90.6C380.008 91.0267 382.27 91.112 384.403 90.856C386.536 90.5147 388.627 90.216 390.675 89.96C392.808 89.6187 395.027 89.448 397.331 89.448C399.635 89.3627 402.024 89.7467 404.499 90.6C406.035 91.112 407.358 91.624 408.467 92.136C409.662 92.648 410.686 93.288 411.539 94.056C412.478 94.824 413.203 95.8053 413.715 97C414.312 98.1093 414.867 99.5173 415.379 101.224C416.232 105.405 415.848 109.459 414.227 113.384C412.691 117.309 410.302 121.064 407.059 124.648C403.816 128.147 400.062 131.432 395.795 134.504C391.528 137.576 387.176 140.392 382.739 142.952C378.302 145.427 374.035 147.517 369.939 149.224C365.843 151.016 362.344 152.467 359.443 153.576C358.675 153.832 357.95 153.747 357.267 153.32C356.584 152.893 356.115 152.381 355.859 151.784ZM372.115 65.256V88.808C372.627 88.296 373.352 87.6133 374.291 86.76C375.23 85.8213 376.296 84.7547 377.491 83.56C378.686 82.3653 379.923 81.128 381.203 79.848C382.568 78.568 383.806 77.3307 384.915 76.136C386.11 74.856 387.134 73.7467 387.987 72.808C388.926 71.8693 389.651 71.144 390.163 70.632C390.846 69.9493 391.656 68.968 392.595 67.688C393.619 66.3227 394.6 64.9573 395.539 63.592C396.563 62.2267 397.416 61.032 398.099 60.008C398.782 58.984 399.123 58.344 399.123 58.088V52.712C397.075 52.3707 394.643 52.584 391.827 53.352C389.011 54.0347 386.195 54.9307 383.379 56.04C380.648 57.064 378.088 58.1307 375.699 59.24C373.31 60.3493 371.518 61.2027 370.323 61.8L372.115 65.256ZM423.48 151.784C422.115 148.883 421.347 145.939 421.176 142.952C421.091 139.965 421.261 136.936 421.688 133.864C421.773 132.84 421.944 131.389 422.2 129.512C422.456 127.549 422.755 125.416 423.096 123.112C423.437 120.723 423.821 118.205 424.248 115.56C424.675 112.915 425.059 110.44 425.4 108.136C425.741 105.747 426.04 103.656 426.296 101.864C426.637 100.072 426.893 98.7067 427.064 97.768C427.576 94.8667 428.173 92.392 428.856 90.344C429.539 88.296 430.435 86.7173 431.544 85.608C432.739 84.4987 434.232 83.9013 436.024 83.816C437.901 83.7307 440.291 84.2 443.192 85.224C443.533 85.3093 443.917 85.608 444.344 86.12C444.771 86.5467 444.984 86.8027 444.984 86.888C445.155 87.8267 445.411 89.2347 445.752 91.112C446.179 92.9893 446.605 95.1227 447.032 97.512C447.544 99.9013 448.056 102.376 448.568 104.936C449.165 107.496 449.677 109.971 450.104 112.36C450.531 114.749 450.915 116.883 451.256 118.76C451.683 120.637 452.024 122.045 452.28 122.984C453.304 127.848 454.584 131.261 456.12 133.224C457.656 135.101 459.277 136.083 460.984 136.168C462.691 136.253 464.483 135.699 466.36 134.504C468.237 133.224 470.029 131.901 471.736 130.536C473.528 129.171 475.235 128.019 476.856 127.08C478.477 126.141 479.843 125.971 480.952 126.568C480.952 127.848 480.653 129.128 480.056 130.408C479.459 131.603 478.691 132.755 477.752 133.864C476.899 134.888 475.96 135.869 474.936 136.808C473.912 137.747 472.973 138.515 472.12 139.112C468.195 141.672 464.952 143.037 462.392 143.208C459.832 143.293 457.613 142.696 455.736 141.416C453.944 140.136 452.493 138.344 451.384 136.04C450.275 133.736 449.293 131.432 448.44 129.128C447.672 126.739 446.861 124.648 446.008 122.856C445.24 120.979 444.301 119.784 443.192 119.272C442.936 120.211 442.467 121.789 441.784 124.008C441.187 126.141 440.504 128.488 439.736 131.048C438.968 133.523 438.243 135.869 437.56 138.088C436.877 140.307 436.365 141.843 436.024 142.696C435.939 143.037 435.683 143.72 435.256 144.744C434.829 145.683 434.232 146.707 433.464 147.816C432.781 149.011 432.013 150.12 431.16 151.144C430.307 152.253 429.411 153.107 428.472 153.704C427.619 154.301 426.723 154.472 425.784 154.216C424.931 154.045 424.163 153.235 423.48 151.784ZM428.856 121.192C428.771 122.045 428.685 123.581 428.6 125.8C428.6 128.019 428.6 130.365 428.6 132.84C428.6 135.229 428.6 137.576 428.6 139.88C428.685 142.099 428.771 143.635 428.856 144.488C431.245 140.819 433.379 136.552 435.256 131.688C437.219 126.824 438.712 121.789 439.736 116.584C440.76 111.293 441.144 106.088 440.888 100.968C440.717 95.848 439.736 91.1547 437.944 86.888C436.664 89.1067 435.512 91.8373 434.488 95.08C433.464 98.3227 432.568 101.608 431.8 104.936C431.117 108.264 430.477 111.421 429.88 114.408C429.368 117.395 429.027 119.656 428.856 121.192ZM478.796 151.784C478.881 150.845 478.924 149.267 478.924 147.048V132.968C478.924 130.749 478.881 129.171 478.796 128.232C478.711 127.891 478.583 127.037 478.412 125.672C478.241 124.307 478.028 122.685 477.772 120.808C477.516 118.845 477.26 116.84 477.004 114.792C476.748 112.744 476.449 110.824 476.108 109.032C475.852 107.155 475.639 105.533 475.468 104.168C475.297 102.717 475.169 101.736 475.084 101.224C474.999 100.285 474.956 99.304 474.956 98.28C475.041 97.256 475.255 96.36 475.596 95.592C475.937 94.824 476.449 94.312 477.132 94.056C477.9 93.7147 479.009 93.7573 480.46 94.184C480.545 95.6347 480.673 97.3413 480.844 99.304C481.1 101.267 481.356 103.315 481.612 105.448C481.868 107.581 482.209 109.715 482.636 111.848C483.063 113.896 483.575 115.816 484.172 117.608C485.025 114.963 485.879 112.659 486.732 110.696C487.671 108.733 488.695 106.941 489.804 105.32C490.913 103.699 492.151 102.12 493.516 100.584C494.881 99.048 496.545 97.512 498.508 95.976C500.897 93.928 502.903 93.1173 504.524 93.544C506.145 93.8853 507.468 95.08 508.492 97.128C509.601 99.0907 510.497 101.651 511.18 104.808C511.948 107.88 512.588 111.165 513.1 114.664C513.612 118.163 514.167 121.576 514.764 124.904C515.361 128.232 516.087 131.133 516.94 133.608C517.879 136.083 519.031 137.875 520.396 138.984C521.761 140.093 523.468 140.136 525.516 139.112C526.113 140.989 526.199 142.355 525.772 143.208C525.345 144.061 524.577 144.531 523.468 144.616C522.359 144.701 521.079 144.445 519.628 143.848C518.263 143.165 516.855 142.269 515.404 141.16C514.039 140.051 512.801 138.685 511.692 137.064C510.583 135.443 509.772 133.736 509.26 131.944C509.089 130.749 508.876 128.744 508.62 125.928C508.364 123.027 508.023 119.955 507.596 116.712C507.255 113.469 506.615 110.269 505.676 107.112C504.823 103.955 503.628 101.437 502.092 99.56L494.796 106.6C494.625 106.941 494.113 108.221 493.26 110.44C492.492 112.573 491.639 115.091 490.7 117.992C489.761 120.893 488.823 123.837 487.884 126.824C486.945 129.725 486.305 132.072 485.964 133.864C485.793 134.461 485.58 135.613 485.324 137.32C485.153 138.941 484.94 140.733 484.684 142.696C484.513 144.659 484.385 146.493 484.3 148.2C484.215 149.907 484.172 151.101 484.172 151.784C483.575 153.064 482.679 153.704 481.484 153.704C480.289 153.704 479.393 153.064 478.796 151.784ZM533.344 146.28C533.429 145.171 533.685 143.592 534.112 141.544C534.624 139.411 535.051 137.149 535.392 134.76C535.733 132.371 535.947 129.981 536.032 127.592C536.117 125.203 535.904 123.197 535.392 121.576C534.88 119.955 533.899 118.888 532.448 118.376C531.083 117.864 529.035 118.163 526.304 119.272C524.768 118.931 523.915 118.376 523.744 117.608C523.488 116.84 523.659 115.987 524.256 115.048C524.939 114.024 525.835 112.957 526.944 111.848C528.053 110.653 529.205 109.459 530.4 108.264C531.595 106.984 532.661 105.789 533.6 104.68C534.539 103.485 535.051 102.333 535.136 101.224C535.051 100.712 534.923 99.5173 534.752 97.64C534.667 95.7627 534.496 93.6293 534.24 91.24C533.984 88.7653 533.685 86.1627 533.344 83.432C533.088 80.616 532.832 77.9707 532.576 75.496C532.32 73.0213 532.107 70.8453 531.936 68.968C531.765 67.0907 531.637 65.8533 531.552 65.256C531.552 64.3173 531.552 63.464 531.552 62.696C531.637 61.928 531.893 61.288 532.32 60.776C532.747 60.1787 533.301 59.7947 533.984 59.624C534.752 59.4533 535.733 59.5813 536.928 60.008C537.269 62.568 537.611 65.5547 537.952 68.968C538.293 72.296 538.677 75.7093 539.104 79.208C539.531 82.7067 540 86.2053 540.512 89.704C541.024 93.2027 541.621 96.488 542.304 99.56C542.987 99.048 543.797 98.152 544.736 96.872C545.76 95.5067 546.827 94.0133 547.936 92.392C549.045 90.6853 550.197 89.0213 551.392 87.4C552.672 85.7787 553.867 84.4987 554.976 83.56C556.085 82.536 557.109 81.9387 558.048 81.768C558.987 81.5973 559.755 82.1093 560.352 83.304C560.437 83.4747 560.48 83.7733 560.48 84.2C560.48 84.6267 560.437 84.968 560.352 85.224C559.499 87.9547 558.091 90.5147 556.128 92.904C554.165 95.208 552.16 97.4693 550.112 99.688C548.064 101.907 546.272 104.168 544.736 106.472C543.2 108.776 542.389 111.251 542.304 113.896C542.901 114.408 543.84 115.347 545.12 116.712L554.08 125.672C555.787 127.379 557.408 129 558.944 130.536C560.48 132.072 561.803 133.437 562.912 134.632L565.728 137.32C566.069 137.661 566.709 138.301 567.648 139.24C568.587 140.179 569.397 141.203 570.08 142.312C570.763 143.421 571.104 144.488 571.104 145.512C571.189 146.536 570.592 147.389 569.312 148.072C569.141 148.157 568.843 148.2 568.416 148.2C567.989 148.2 567.691 148.157 567.52 148.072C564.021 143.72 560.139 139.283 555.872 134.76C551.605 130.237 547.083 126.312 542.304 122.984C542.219 123.581 542.133 124.563 542.048 125.928C541.963 127.208 541.749 128.701 541.408 130.408C541.152 132.029 540.896 133.779 540.64 135.656C540.469 137.448 540.256 139.155 540 140.776C539.744 142.397 539.488 143.848 539.232 145.128C539.061 146.493 538.891 147.475 538.72 148.072C538.635 148.499 538.421 149.053 538.08 149.736C537.824 150.504 537.44 151.229 536.928 151.912C536.416 152.595 535.861 153.107 535.264 153.448C534.667 153.789 534.027 153.832 533.344 153.576C533.344 153.235 533.301 152.723 533.216 152.04C533.216 151.443 533.216 150.76 533.216 149.992C533.216 149.224 533.216 148.499 533.216 147.816C533.301 147.133 533.344 146.621 533.344 146.28ZM581.939 151.784C580.318 150.504 579.08 148.755 578.227 146.536C577.459 144.317 577.032 142.227 576.947 140.264C576.947 138.301 577.203 136.765 577.715 135.656C578.312 134.547 579.123 134.504 580.147 135.528C579.976 139.283 580.659 142.141 582.195 144.104C583.731 145.981 585.566 147.176 587.699 147.688C589.832 148.2 592.136 148.072 594.611 147.304C597.086 146.536 599.176 145.341 600.883 143.72C602.675 142.099 603.912 140.136 604.595 137.832C605.278 135.443 604.894 132.925 603.443 130.28C601.736 128.147 599.731 126.141 597.427 124.264C595.208 122.387 592.947 120.509 590.643 118.632C588.339 116.755 586.12 114.835 583.987 112.872C581.854 110.909 579.976 108.819 578.355 106.6C578.184 106.429 578.099 106.173 578.099 105.832C578.099 105.405 578.184 105.107 578.355 104.936C578.867 104.339 579.55 103.4 580.403 102.12C581.256 100.755 582.28 99.2187 583.475 97.512C584.67 95.8053 585.907 94.056 587.187 92.264C588.552 90.472 589.832 88.7653 591.027 87.144C592.222 85.4373 593.246 83.944 594.099 82.664C595.038 81.2987 595.763 80.3173 596.275 79.72C597.214 78.44 598.195 77.7147 599.219 77.544C600.243 77.3733 601.651 77.5013 603.443 77.928C603.358 78.2693 603.102 78.9093 602.675 79.848C602.248 80.7013 601.907 81.256 601.651 81.512C601.139 82.3653 600.115 83.816 598.579 85.864C597.043 87.912 595.379 90.1307 593.587 92.52C591.88 94.824 590.259 97 588.723 99.048C587.272 101.011 586.248 102.376 585.651 103.144C585.054 103.912 585.224 104.851 586.163 105.96C587.187 107.069 588.552 108.349 590.259 109.8C592.051 111.165 594.099 112.701 596.403 114.408C598.707 116.029 600.883 117.821 602.931 119.784C604.979 121.747 606.686 123.837 608.051 126.056C609.502 128.275 610.27 130.664 610.355 133.224C610.526 135.699 609.8 138.344 608.179 141.16C606.643 143.891 603.87 146.792 599.859 149.864C598.664 150.888 597.299 151.741 595.763 152.424C594.312 153.107 592.776 153.533 591.155 153.704C589.619 153.96 588.04 153.96 586.419 153.704C584.798 153.448 583.304 152.808 581.939 151.784Z" fill="white"/>
<path d="M416 191C413.791 191 412 187.016 412 187.016L416 178L420 187.016C420 187.016 418.209 191 416 191Z" fill="white"/>
<path d="M412 187.016C412 187.016 413.791 191 416 191M412 187.016L416 178M412 187.016H420M416 191C418.209 191 420 187.016 420 187.016M416 191C416 180.6 418.667 184.011 420 187.016M416 191C416 185.923 416 178 416 178M420 187.016L416 178" stroke="black"/>
<path d="M296 191C293.791 191 292 187.016 292 187.016L296 178L300 187.016C300 187.016 298.209 191 296 191Z" fill="white"/>
<path d="M292 187.016C292 187.016 293.791 191 296 191M292 187.016L296 178M292 187.016H300M296 191C298.209 191 300 187.016 300 187.016M296 191C296 180.6 298.667 184.011 300 187.016M296 191C296 185.923 296 178 296 178M300 187.016L296 178" stroke="black"/>
<path d="M29.264 186.584V188.792C30.6933 189.475 32.5067 189.816 34.704 189.816C36.9013 189.816 38.5547 189.475 39.664 188.792C40.7733 188.088 41.328 187.107 41.328 185.848C41.328 184.568 40.8053 183.619 39.76 183C38.7147 182.381 37.0507 181.859 34.768 181.432C32.4853 180.984 30.768 180.397 29.616 179.672C28.4853 178.947 27.92 177.805 27.92 176.248C27.92 172.899 30.4053 171.224 35.376 171.224C38.0213 171.224 40.208 171.704 41.936 172.664C42.256 172.856 42.416 173.08 42.416 173.336V175.96C42.416 176.173 42.3307 176.355 42.16 176.504C41.9893 176.632 41.7867 176.696 41.552 176.696C41.3173 176.696 41.1147 176.632 40.944 176.504C40.7733 176.355 40.688 176.173 40.688 175.96V173.752C39.216 173.069 37.4667 172.728 35.44 172.728C33.4347 172.728 31.9627 173.016 31.024 173.592C30.1067 174.168 29.648 175.053 29.648 176.248C29.648 177.379 30.2453 178.221 31.44 178.776C32.2507 179.181 33.3387 179.533 34.704 179.832C36.0907 180.109 37.072 180.323 37.648 180.472C38.224 180.621 38.896 180.856 39.664 181.176C40.432 181.475 41.0293 181.816 41.456 182.2C41.8827 182.584 42.256 183.096 42.576 183.736C42.896 184.355 43.056 185.069 43.056 185.88C43.056 187.544 42.352 188.867 40.944 189.848C39.5573 190.829 37.5627 191.32 34.96 191.32C33.7653 191.32 32.4747 191.192 31.088 190.936C29.7013 190.659 28.656 190.296 27.952 189.848C27.6747 189.677 27.536 189.464 27.536 189.208V186.584C27.536 186.371 27.6213 186.2 27.792 186.072C27.9627 185.923 28.1653 185.848 28.4 185.848C28.6347 185.848 28.8373 185.923 29.008 186.072C29.1787 186.2 29.264 186.371 29.264 186.584ZM51.956 189.848C53.2573 189.848 54.3133 189.4 55.124 188.504C55.956 187.608 56.372 186.456 56.372 185.048C56.372 183.619 55.956 182.456 55.124 181.56C54.3133 180.643 53.2573 180.184 51.956 180.184C50.6547 180.184 49.588 180.643 48.756 181.56C47.9453 182.456 47.54 183.619 47.54 185.048C47.54 186.456 47.9453 187.608 48.756 188.504C49.588 189.4 50.6547 189.848 51.956 189.848ZM47.508 189.56C46.3773 188.365 45.812 186.851 45.812 185.016C45.812 183.181 46.388 181.677 47.54 180.504C48.692 179.309 50.164 178.712 51.956 178.712C53.748 178.712 55.2093 179.309 56.34 180.504C57.492 181.677 58.068 183.192 58.068 185.048C58.068 186.883 57.492 188.387 56.34 189.56C55.2093 190.733 53.7373 191.32 51.924 191.32C50.132 191.32 48.66 190.733 47.508 189.56ZM60.0843 198.232C59.8496 198.296 59.6469 198.328 59.4763 198.328C59.3056 198.328 59.1562 198.264 59.0282 198.136C58.8789 198.008 58.8042 197.837 58.8042 197.624C58.8042 197.24 59.0496 196.984 59.5403 196.856C60.6496 196.515 61.4176 195.875 61.8443 194.936C62.2709 194.019 62.4843 192.771 62.4843 191.192V180.536H60.5323C60.3189 180.536 60.1376 180.472 59.9883 180.344C59.8603 180.195 59.7963 180.013 59.7963 179.8C59.7963 179.587 59.8603 179.405 59.9883 179.256C60.1376 179.107 60.3189 179.032 60.5323 179.032H62.4843V171.8C62.4843 169.944 62.8683 168.632 63.6363 167.864C64.4256 167.075 65.6309 166.68 67.2523 166.68C68.8736 166.68 70.2603 167.032 71.4123 167.736C71.6683 167.885 71.7963 168.077 71.7963 168.312V171.064C71.7963 171.277 71.7109 171.459 71.5403 171.608C71.3696 171.736 71.1669 171.8 70.9323 171.8C70.6976 171.8 70.4949 171.736 70.3243 171.608C70.1536 171.459 70.0683 171.277 70.0683 171.064V168.664C69.3216 168.323 68.3936 168.152 67.2843 168.152C66.1749 168.152 65.3749 168.44 64.8843 169.016C64.4149 169.571 64.1803 170.509 64.1803 171.832V179.032H69.7483C69.9616 179.032 70.1323 179.107 70.2603 179.256C70.4096 179.405 70.4843 179.587 70.4843 179.8C70.4843 180.013 70.4096 180.195 70.2603 180.344C70.1323 180.472 69.9616 180.536 69.7483 180.536H64.1803V191.192C64.1803 193.091 63.8923 194.605 63.3163 195.736C62.7403 196.867 61.6629 197.699 60.0843 198.232ZM81.4045 188.952C81.5752 188.845 81.7672 188.813 81.9805 188.856C82.2152 188.899 82.3752 188.995 82.4605 189.144C82.5458 189.272 82.5885 189.389 82.5885 189.496C82.5885 189.816 82.4712 190.051 82.2365 190.2C80.9565 190.947 79.5805 191.32 78.1085 191.32C76.6365 191.32 75.5805 191.021 74.9405 190.424C74.3005 189.805 73.9805 188.792 73.9805 187.384V180.536H72.1885C71.9752 180.536 71.7938 180.472 71.6445 180.344C71.5165 180.195 71.4525 180.013 71.4525 179.8C71.4525 179.587 71.5165 179.405 71.6445 179.256C71.7938 179.107 71.9752 179.032 72.1885 179.032H73.9805V174.456C73.9805 174.243 74.0658 174.072 74.2365 173.944C74.4072 173.795 74.6098 173.72 74.8445 173.72C75.0792 173.72 75.2818 173.795 75.4525 173.944C75.6232 174.072 75.7085 174.243 75.7085 174.456V179.032H81.0845C81.2978 179.032 81.4685 179.107 81.5965 179.256C81.7458 179.405 81.8205 179.587 81.8205 179.8C81.8205 180.013 81.7458 180.195 81.5965 180.344C81.4685 180.472 81.2978 180.536 81.0845 180.536H75.7085V187.384C75.7085 188.28 75.8898 188.92 76.2525 189.304C76.6365 189.667 77.3298 189.848 78.3325 189.848C79.3565 189.848 80.3805 189.549 81.4045 188.952ZM97.2735 190.712C97.1242 191.117 96.8362 191.32 96.4095 191.32C96.0042 191.32 95.7482 191.128 95.6415 190.744L92.6655 181.912L89.6895 190.744C89.5828 191.128 89.3162 191.32 88.8895 191.32C88.4842 191.32 88.2068 191.128 88.0575 190.744L83.8655 179.832C83.8228 179.725 83.8015 179.619 83.8015 179.512C83.8015 179.192 83.9935 178.957 84.3775 178.808C84.5055 178.744 84.6442 178.712 84.7935 178.712C85.1348 178.755 85.3588 178.904 85.4655 179.16L88.8255 188.12L91.8335 179.224C91.9402 178.883 92.2068 178.712 92.6335 178.712C93.0815 178.712 93.3588 178.883 93.4655 179.224L96.5055 188.152L99.8655 179.16C99.9935 178.84 100.154 178.68 100.346 178.68C100.559 178.68 100.751 178.723 100.922 178.808C101.306 178.957 101.498 179.192 101.498 179.512C101.498 179.619 101.476 179.725 101.434 179.832L97.2735 190.712ZM112.173 186.04C110.765 185.656 109.56 185.464 108.557 185.464C107.576 185.464 106.765 185.656 106.125 186.04C105.506 186.424 105.197 186.968 105.197 187.672C105.197 188.355 105.4 188.888 105.805 189.272C106.21 189.656 106.765 189.848 107.469 189.848C109.432 189.848 111 188.781 112.173 186.648V186.04ZM114.733 189.496H115.981C116.194 189.496 116.365 189.571 116.493 189.72C116.642 189.869 116.717 190.051 116.717 190.264C116.717 190.477 116.642 190.659 116.493 190.808C116.365 190.936 116.194 191 115.981 191H114.573C113.805 191 113.208 190.829 112.781 190.488C112.376 190.147 112.173 189.667 112.173 189.048C112.173 188.941 112.184 188.824 112.205 188.696C111.074 190.445 109.432 191.32 107.277 191.32C106.082 191.32 105.144 191 104.461 190.36C103.8 189.72 103.469 188.835 103.469 187.704C103.469 186.552 103.917 185.656 104.813 185.016C105.73 184.355 106.861 184.024 108.205 184.024C109.57 184.024 110.893 184.248 112.173 184.696V182.488C112.173 181.464 111.8 180.803 111.053 180.504C110.477 180.291 109.677 180.184 108.653 180.184C107.65 180.184 106.722 180.355 105.869 180.696V182.712C105.869 182.925 105.784 183.107 105.613 183.256C105.442 183.384 105.24 183.448 105.005 183.448C104.77 183.448 104.568 183.384 104.397 183.256C104.226 183.107 104.141 182.925 104.141 182.712V180.28C104.141 180.003 104.28 179.789 104.557 179.64C105.602 179.021 106.989 178.712 108.717 178.712C110.445 178.712 111.736 179 112.589 179.576C113.442 180.131 113.869 181.101 113.869 182.488V188.888C113.869 189.293 114.157 189.496 114.733 189.496ZM117.459 179.032H119.091C120.435 179.032 121.129 179.757 121.171 181.208C122.323 179.544 123.689 178.712 125.267 178.712C126.163 178.712 126.921 178.883 127.539 179.224C127.838 179.395 127.987 179.619 127.987 179.896V182.584C127.987 182.797 127.902 182.979 127.731 183.128C127.561 183.256 127.358 183.32 127.123 183.32C126.889 183.32 126.686 183.256 126.515 183.128C126.345 182.979 126.259 182.797 126.259 182.584V180.344C125.982 180.237 125.566 180.184 125.011 180.184C124.457 180.184 123.827 180.451 123.123 180.984C122.419 181.496 121.811 182.264 121.299 183.288V190.584C121.299 190.797 121.214 190.968 121.043 191.096C120.873 191.245 120.67 191.32 120.435 191.32C120.201 191.32 119.998 191.245 119.827 191.096C119.657 190.968 119.571 190.797 119.571 190.584V181.144C119.571 180.739 119.358 180.536 118.931 180.536H117.459C117.246 180.536 117.065 180.472 116.915 180.344C116.787 180.195 116.723 180.013 116.723 179.8C116.723 179.587 116.787 179.405 116.915 179.256C117.065 179.107 117.246 179.032 117.459 179.032ZM139.635 183.96C139.571 182.808 139.229 181.891 138.611 181.208C138.013 180.525 137.139 180.184 135.987 180.184C134.856 180.184 133.907 180.536 133.139 181.24C132.371 181.923 131.891 182.829 131.699 183.96H139.635ZM139.699 187.928C139.848 187.672 140.019 187.544 140.211 187.544C140.403 187.544 140.595 187.597 140.787 187.704C140.979 187.789 141.107 187.939 141.171 188.152C141.256 188.344 141.245 188.525 141.139 188.696C140.051 190.445 138.323 191.32 135.955 191.32C134.077 191.32 132.595 190.723 131.507 189.528C130.44 188.312 129.907 186.787 129.907 184.952C129.907 183.117 130.461 181.624 131.571 180.472C132.68 179.299 134.141 178.712 135.955 178.712C137.768 178.712 139.112 179.256 139.987 180.344C140.883 181.432 141.331 182.883 141.331 184.696C141.331 185.187 141.053 185.432 140.499 185.432L131.635 185.464C131.72 186.787 132.147 187.853 132.915 188.664C133.704 189.453 134.717 189.848 135.955 189.848C137.619 189.848 138.867 189.208 139.699 187.928ZM154.68 173.048V189.496H159.576C162.05 189.496 163.981 188.781 165.368 187.352C166.776 185.901 167.48 183.896 167.48 181.336C167.48 178.755 166.765 176.728 165.336 175.256C163.906 173.784 161.986 173.048 159.576 173.048H154.68ZM152.952 173.048H151.032C150.818 173.048 150.637 172.984 150.488 172.856C150.36 172.707 150.296 172.525 150.296 172.312C150.296 172.099 150.36 171.917 150.488 171.768C150.637 171.619 150.818 171.544 151.032 171.544H159.576C162.477 171.544 164.802 172.429 166.552 174.2C168.322 175.949 169.208 178.317 169.208 181.304C169.208 184.291 168.344 186.659 166.616 188.408C164.888 190.136 162.541 191 159.576 191H153.784C153.229 191 152.952 190.755 152.952 190.264V173.048ZM181.791 183.96C181.727 182.808 181.385 181.891 180.767 181.208C180.169 180.525 179.295 180.184 178.143 180.184C177.012 180.184 176.063 180.536 175.295 181.24C174.527 181.923 174.047 182.829 173.855 183.96H181.791ZM181.855 187.928C182.004 187.672 182.175 187.544 182.367 187.544C182.559 187.544 182.751 187.597 182.943 187.704C183.135 187.789 183.263 187.939 183.327 188.152C183.412 188.344 183.401 188.525 183.295 188.696C182.207 190.445 180.479 191.32 178.111 191.32C176.233 191.32 174.751 190.723 173.663 189.528C172.596 188.312 172.063 186.787 172.063 184.952C172.063 183.117 172.617 181.624 173.727 180.472C174.836 179.299 176.297 178.712 178.111 178.712C179.924 178.712 181.268 179.256 182.143 180.344C183.039 181.432 183.487 182.883 183.487 184.696C183.487 185.187 183.209 185.432 182.655 185.432L173.791 185.464C173.876 186.787 174.303 187.853 175.071 188.664C175.86 189.453 176.873 189.848 178.111 189.848C179.775 189.848 181.023 189.208 181.855 187.928ZM195.891 179.16C196.041 178.84 196.211 178.68 196.403 178.68C196.915 178.68 197.267 178.872 197.459 179.256C197.502 179.363 197.523 179.469 197.523 179.576C197.523 179.661 197.502 179.747 197.459 179.832L192.211 190.808C192.041 191.149 191.763 191.32 191.379 191.32C191.017 191.32 190.75 191.149 190.579 190.808L185.299 179.832C185.257 179.747 185.235 179.651 185.235 179.544C185.235 179.224 185.427 178.979 185.811 178.808C185.982 178.723 186.163 178.68 186.355 178.68C186.569 178.68 186.75 178.84 186.899 179.16L191.411 188.888L195.891 179.16ZM209.291 183.96C209.227 182.808 208.885 181.891 208.267 181.208C207.669 180.525 206.795 180.184 205.643 180.184C204.512 180.184 203.563 180.536 202.795 181.24C202.027 181.923 201.547 182.829 201.355 183.96H209.291ZM209.355 187.928C209.504 187.672 209.675 187.544 209.867 187.544C210.059 187.544 210.251 187.597 210.443 187.704C210.635 187.789 210.763 187.939 210.827 188.152C210.912 188.344 210.901 188.525 210.795 188.696C209.707 190.445 207.979 191.32 205.611 191.32C203.733 191.32 202.251 190.723 201.163 189.528C200.096 188.312 199.563 186.787 199.563 184.952C199.563 183.117 200.117 181.624 201.227 180.472C202.336 179.299 203.797 178.712 205.611 178.712C207.424 178.712 208.768 179.256 209.643 180.344C210.539 181.432 210.987 182.883 210.987 184.696C210.987 185.187 210.709 185.432 210.155 185.432L201.291 185.464C201.376 186.787 201.803 187.853 202.571 188.664C203.36 189.453 204.373 189.848 205.611 189.848C207.275 189.848 208.523 189.208 209.355 187.928ZM217.209 189.496H218.457C218.67 189.496 218.841 189.571 218.969 189.72C219.118 189.869 219.193 190.051 219.193 190.264C219.193 190.477 219.118 190.659 218.969 190.808C218.841 190.936 218.67 191 218.457 191H217.209C215.481 191 214.617 190.307 214.617 188.92V168.504H212.505C212.291 168.504 212.12 168.44 211.992 168.312C211.843 168.163 211.768 167.981 211.768 167.768C211.768 167.555 211.843 167.373 211.992 167.224C212.12 167.075 212.291 167 212.505 167H215.481C215.715 167 215.918 167.075 216.089 167.224C216.259 167.373 216.345 167.555 216.345 167.768V188.888C216.345 189.293 216.633 189.496 217.209 189.496ZM226.987 189.848C228.289 189.848 229.345 189.4 230.155 188.504C230.987 187.608 231.403 186.456 231.403 185.048C231.403 183.619 230.987 182.456 230.155 181.56C229.345 180.643 228.289 180.184 226.987 180.184C225.686 180.184 224.619 180.643 223.787 181.56C222.977 182.456 222.571 183.619 222.571 185.048C222.571 186.456 222.977 187.608 223.787 188.504C224.619 189.4 225.686 189.848 226.987 189.848ZM222.539 189.56C221.409 188.365 220.843 186.851 220.843 185.016C220.843 183.181 221.419 181.677 222.571 180.504C223.723 179.309 225.195 178.712 226.987 178.712C228.779 178.712 230.241 179.309 231.371 180.504C232.523 181.677 233.099 183.192 233.099 185.048C233.099 186.883 232.523 188.387 231.371 189.56C230.241 190.733 228.769 191.32 226.955 191.32C225.163 191.32 223.691 190.733 222.539 189.56ZM239.078 181.304C240.188 179.576 241.66 178.712 243.494 178.712C245.35 178.712 246.758 179.309 247.718 180.504C248.7 181.677 249.19 183.171 249.19 184.984C249.19 186.797 248.689 188.312 247.686 189.528C246.705 190.723 245.329 191.32 243.558 191.32C241.809 191.32 240.358 190.712 239.206 189.496V197.592C239.206 197.805 239.121 197.976 238.95 198.104C238.78 198.253 238.577 198.328 238.342 198.328C238.108 198.328 237.905 198.253 237.734 198.104C237.564 197.976 237.478 197.805 237.478 197.592V181.144C237.478 180.739 237.276 180.536 236.87 180.536H235.366C235.153 180.536 234.972 180.472 234.822 180.344C234.694 180.195 234.63 180.013 234.63 179.8C234.63 179.587 234.694 179.405 234.822 179.256C234.972 179.107 235.153 179.032 235.366 179.032H237.094C238.46 179.032 239.121 179.789 239.078 181.304ZM239.206 187.928C240.572 189.208 241.937 189.848 243.302 189.848C244.668 189.848 245.702 189.4 246.406 188.504C247.132 187.608 247.494 186.424 247.494 184.952C247.494 183.48 247.142 182.317 246.438 181.464C245.734 180.611 244.764 180.184 243.526 180.184C241.713 180.184 240.273 181.197 239.206 183.224V187.928ZM261.635 183.96C261.571 182.808 261.229 181.891 260.611 181.208C260.013 180.525 259.139 180.184 257.987 180.184C256.856 180.184 255.907 180.536 255.139 181.24C254.371 181.923 253.891 182.829 253.699 183.96H261.635ZM261.699 187.928C261.848 187.672 262.019 187.544 262.211 187.544C262.403 187.544 262.595 187.597 262.787 187.704C262.979 187.789 263.107 187.939 263.171 188.152C263.256 188.344 263.245 188.525 263.139 188.696C262.051 190.445 260.323 191.32 257.955 191.32C256.077 191.32 254.595 190.723 253.507 189.528C252.44 188.312 251.907 186.787 251.907 184.952C251.907 183.117 252.461 181.624 253.571 180.472C254.68 179.299 256.141 178.712 257.955 178.712C259.768 178.712 261.112 179.256 261.987 180.344C262.883 181.432 263.331 182.883 263.331 184.696C263.331 185.187 263.053 185.432 262.499 185.432L253.635 185.464C253.72 186.787 254.147 187.853 254.915 188.664C255.704 189.453 256.717 189.848 257.955 189.848C259.619 189.848 260.867 189.208 261.699 187.928ZM265.584 179.032H267.216C268.56 179.032 269.254 179.757 269.296 181.208C270.448 179.544 271.814 178.712 273.392 178.712C274.288 178.712 275.046 178.883 275.664 179.224C275.963 179.395 276.112 179.619 276.112 179.896V182.584C276.112 182.797 276.027 182.979 275.856 183.128C275.686 183.256 275.483 183.32 275.248 183.32C275.014 183.32 274.811 183.256 274.64 183.128C274.47 182.979 274.384 182.797 274.384 182.584V180.344C274.107 180.237 273.691 180.184 273.136 180.184C272.582 180.184 271.952 180.451 271.248 180.984C270.544 181.496 269.936 182.264 269.424 183.288V190.584C269.424 190.797 269.339 190.968 269.168 191.096C268.998 191.245 268.795 191.32 268.56 191.32C268.326 191.32 268.123 191.245 267.952 191.096C267.782 190.968 267.696 190.797 267.696 190.584V181.144C267.696 180.739 267.483 180.536 267.056 180.536H265.584C265.371 180.536 265.19 180.472 265.04 180.344C264.912 180.195 264.848 180.013 264.848 179.8C264.848 179.587 264.912 179.405 265.04 179.256C265.19 179.107 265.371 179.032 265.584 179.032Z" fill="white"/>
<path d="M440.264 190.584V173.048H438.344C438.131 173.048 437.949 172.984 437.8 172.856C437.672 172.707 437.608 172.525 437.608 172.312C437.608 172.099 437.672 171.917 437.8 171.768C437.949 171.619 438.131 171.544 438.344 171.544H441C441.341 171.544 441.619 171.672 441.832 171.928L449.864 182.904L457.864 171.96C458.056 171.683 458.323 171.544 458.664 171.544H461.384C461.597 171.544 461.768 171.619 461.896 171.768C462.045 171.917 462.12 172.099 462.12 172.312C462.12 172.525 462.045 172.707 461.896 172.856C461.768 172.984 461.597 173.048 461.384 173.048H459.464V189.016C459.464 189.336 459.709 189.496 460.2 189.496H461.384C461.597 189.496 461.768 189.571 461.896 189.72C462.045 189.869 462.12 190.051 462.12 190.264C462.12 190.477 462.045 190.659 461.896 190.808C461.768 190.936 461.597 191 461.384 191H460.2C458.557 191 457.736 190.339 457.736 189.016V174.904L450.568 184.696C450.397 184.931 450.163 185.048 449.864 185.048C449.565 185.048 449.331 184.931 449.16 184.696L441.992 174.904V190.584C441.992 190.797 441.907 190.968 441.736 191.096C441.565 191.245 441.363 191.32 441.128 191.32C440.893 191.32 440.691 191.245 440.52 191.096C440.349 190.968 440.264 190.797 440.264 190.584ZM476.919 189.496H478.423C478.636 189.496 478.807 189.571 478.935 189.72C479.084 189.848 479.159 190.019 479.159 190.232C479.159 190.445 479.084 190.627 478.935 190.776C478.807 190.925 478.636 191 478.423 191H476.695C475.372 191 474.711 190.275 474.711 188.824C473.431 190.488 471.82 191.32 469.879 191.32C468.727 191.32 467.777 191.032 467.031 190.456C466.305 189.859 465.943 188.995 465.943 187.864V181.144C465.943 180.739 465.655 180.536 465.079 180.536H463.831C463.617 180.536 463.436 180.461 463.287 180.312C463.159 180.163 463.095 179.981 463.095 179.768C463.095 179.555 463.159 179.384 463.287 179.256C463.436 179.107 463.617 179.032 463.831 179.032H465.079C466.807 179.032 467.671 179.725 467.671 181.112V187.864C467.671 188.504 467.863 188.995 468.247 189.336C468.652 189.677 469.207 189.848 469.911 189.848C471.873 189.848 473.431 188.824 474.583 186.776V179.448C474.583 179.235 474.668 179.064 474.839 178.936C475.009 178.787 475.212 178.712 475.447 178.712C475.681 178.712 475.884 178.787 476.055 178.936C476.225 179.064 476.311 179.235 476.311 179.448V188.888C476.311 189.293 476.513 189.496 476.919 189.496ZM480.816 189.752V187.16C480.816 186.947 480.901 186.776 481.072 186.648C481.242 186.499 481.445 186.424 481.68 186.424C481.914 186.424 482.117 186.499 482.288 186.648C482.458 186.776 482.544 186.947 482.544 187.16V189.336C483.568 189.677 484.634 189.848 485.744 189.848C488.176 189.848 489.392 189.165 489.392 187.8C489.392 186.776 488.25 186.019 485.968 185.528C485.861 185.507 485.626 185.453 485.264 185.368C484.901 185.283 484.602 185.219 484.368 185.176C484.133 185.112 483.738 184.984 483.184 184.792C482.65 184.579 482.266 184.365 482.032 184.152C481.392 183.576 481.072 182.872 481.072 182.04C481.072 181.187 481.349 180.504 481.904 179.992C482.48 179.459 483.109 179.117 483.792 178.968C484.474 178.797 485.221 178.712 486.032 178.712C487.525 178.712 488.901 179 490.16 179.576C490.544 179.747 490.736 179.981 490.736 180.28V182.744C490.736 182.957 490.65 183.139 490.48 183.288C490.309 183.416 490.106 183.48 489.872 183.48C489.637 183.48 489.434 183.416 489.264 183.288C489.093 183.139 489.008 182.957 489.008 182.744V180.696C488.154 180.355 487.162 180.184 486.032 180.184C483.856 180.184 482.768 180.803 482.768 182.04C482.768 182.488 482.906 182.797 483.184 182.968C483.482 183.139 483.696 183.267 483.824 183.352C483.973 183.437 484.229 183.523 484.592 183.608C485.104 183.736 485.626 183.853 486.16 183.96C486.693 184.067 487.13 184.163 487.472 184.248C487.813 184.333 488.24 184.483 488.752 184.696C489.285 184.888 489.701 185.112 490 185.368C490.746 185.965 491.12 186.744 491.12 187.704C491.12 188.664 490.8 189.432 490.16 190.008C489.541 190.563 488.858 190.915 488.112 191.064C487.386 191.235 486.597 191.32 485.744 191.32C484.058 191.32 482.608 191.043 481.392 190.488C481.008 190.317 480.816 190.072 480.816 189.752ZM497.299 190.584C497.299 190.797 497.214 190.968 497.043 191.096C496.873 191.245 496.67 191.32 496.435 191.32C496.201 191.32 495.998 191.245 495.827 191.096C495.657 190.968 495.571 190.797 495.571 190.584V180.536H493.459C493.246 180.536 493.065 180.472 492.915 180.344C492.787 180.195 492.723 180.013 492.723 179.8C492.723 179.587 492.787 179.405 492.915 179.256C493.065 179.107 493.246 179.032 493.459 179.032H496.563C497.054 179.032 497.299 179.277 497.299 179.768V190.584ZM495.507 174.232C495.315 174.019 495.219 173.763 495.219 173.464C495.219 173.165 495.315 172.909 495.507 172.696C495.699 172.483 495.966 172.376 496.307 172.376C496.649 172.376 496.915 172.483 497.107 172.696C497.321 172.909 497.427 173.165 497.427 173.464C497.427 173.763 497.321 174.019 497.107 174.232C496.915 174.445 496.649 174.552 496.307 174.552C495.966 174.552 495.699 174.445 495.507 174.232ZM510.51 187.928C510.68 187.672 510.851 187.544 511.022 187.544C511.214 187.544 511.406 187.587 511.598 187.672C511.896 187.8 512.046 187.981 512.046 188.216C512.046 188.429 512.014 188.589 511.95 188.696C510.862 190.445 509.134 191.32 506.766 191.32C504.952 191.32 503.502 190.712 502.414 189.496C501.326 188.259 500.782 186.744 500.782 184.952C500.782 183.16 501.347 181.677 502.478 180.504C503.63 179.309 505.048 178.712 506.734 178.712C508.44 178.712 509.923 179.107 511.182 179.896C511.438 180.067 511.566 180.269 511.566 180.504V183.192C511.566 183.405 511.48 183.587 511.31 183.736C511.139 183.864 510.936 183.928 510.702 183.928C510.467 183.928 510.264 183.864 510.094 183.736C509.923 183.587 509.838 183.405 509.838 183.192V180.92C508.984 180.429 507.96 180.184 506.766 180.184C505.571 180.184 504.558 180.632 503.726 181.528C502.894 182.424 502.478 183.587 502.478 185.016C502.478 186.424 502.872 187.587 503.661 188.504C504.472 189.4 505.507 189.848 506.766 189.848C508.43 189.848 509.678 189.208 510.51 187.928ZM523.483 190.584V173.048H521.595C521.381 173.048 521.2 172.984 521.051 172.856C520.923 172.707 520.859 172.525 520.859 172.312C520.859 172.099 520.923 171.917 521.051 171.768C521.2 171.619 521.381 171.544 521.595 171.544H531.643C536.293 171.544 538.619 173.645 538.619 177.848C538.619 182.029 536.293 184.12 531.643 184.12H525.211V190.584C525.211 190.797 525.125 190.968 524.955 191.096C524.784 191.245 524.581 191.32 524.347 191.32C524.112 191.32 523.909 191.245 523.739 191.096C523.568 190.968 523.483 190.797 523.483 190.584ZM525.211 173.048V182.648H531.643C535.141 182.648 536.891 181.048 536.891 177.848C536.891 174.648 535.141 173.048 531.643 173.048H525.211ZM540.428 179.032H542.06C543.404 179.032 544.097 179.757 544.14 181.208C545.292 179.544 546.657 178.712 548.236 178.712C549.132 178.712 549.889 178.883 550.508 179.224C550.807 179.395 550.956 179.619 550.956 179.896V182.584C550.956 182.797 550.871 182.979 550.7 183.128C550.529 183.256 550.327 183.32 550.092 183.32C549.857 183.32 549.655 183.256 549.484 183.128C549.313 182.979 549.228 182.797 549.228 182.584V180.344C548.951 180.237 548.535 180.184 547.98 180.184C547.425 180.184 546.796 180.451 546.092 180.984C545.388 181.496 544.78 182.264 544.268 183.288V190.584C544.268 190.797 544.183 190.968 544.012 191.096C543.841 191.245 543.639 191.32 543.404 191.32C543.169 191.32 542.967 191.245 542.796 191.096C542.625 190.968 542.54 190.797 542.54 190.584V181.144C542.54 180.739 542.327 180.536 541.9 180.536H540.428C540.215 180.536 540.033 180.472 539.884 180.344C539.756 180.195 539.692 180.013 539.692 179.8C539.692 179.587 539.756 179.405 539.884 179.256C540.033 179.107 540.215 179.032 540.428 179.032ZM558.987 189.848C560.289 189.848 561.345 189.4 562.155 188.504C562.987 187.608 563.403 186.456 563.403 185.048C563.403 183.619 562.987 182.456 562.155 181.56C561.345 180.643 560.289 180.184 558.987 180.184C557.686 180.184 556.619 180.643 555.787 181.56C554.977 182.456 554.571 183.619 554.571 185.048C554.571 186.456 554.977 187.608 555.787 188.504C556.619 189.4 557.686 189.848 558.987 189.848ZM554.539 189.56C553.409 188.365 552.843 186.851 552.843 185.016C552.843 183.181 553.419 181.677 554.571 180.504C555.723 179.309 557.195 178.712 558.987 178.712C560.779 178.712 562.241 179.309 563.371 180.504C564.523 181.677 565.099 183.192 565.099 185.048C565.099 186.883 564.523 188.387 563.371 189.56C562.241 190.733 560.769 191.32 558.955 191.32C557.163 191.32 555.691 190.733 554.539 189.56ZM573.446 180.184C572.23 180.184 571.26 180.621 570.534 181.496C569.809 182.371 569.446 183.555 569.446 185.048C569.446 186.541 569.798 187.715 570.502 188.568C571.228 189.421 572.209 189.848 573.446 189.848C575.238 189.848 576.668 188.835 577.734 186.808V182.104C577.18 181.571 576.508 181.123 575.718 180.76C574.95 180.376 574.193 180.184 573.446 180.184ZM577.734 168.504H575.622C575.409 168.504 575.228 168.44 575.078 168.312C574.95 168.163 574.886 167.981 574.886 167.768C574.886 167.555 574.95 167.373 575.078 167.224C575.228 167.075 575.409 167 575.622 167H578.598C578.833 167 579.036 167.075 579.206 167.224C579.377 167.373 579.462 167.555 579.462 167.768V188.888C579.462 189.293 579.676 189.496 580.102 189.496H581.574C581.788 189.496 581.958 189.571 582.086 189.72C582.236 189.848 582.31 190.019 582.31 190.232C582.31 190.445 582.236 190.627 582.086 190.776C581.958 190.925 581.788 191 581.574 191H579.878C578.492 191 577.82 190.243 577.862 188.728C577.393 189.453 576.774 190.072 576.006 190.584C575.26 191.075 574.406 191.32 573.446 191.32C571.548 191.32 570.118 190.712 569.158 189.496C568.22 188.28 567.75 186.776 567.75 184.984C567.75 183.192 568.241 181.699 569.222 180.504C570.225 179.309 571.59 178.712 573.318 178.712C575.046 178.712 576.518 179.277 577.734 180.408V168.504ZM596.45 189.496H597.954C598.167 189.496 598.338 189.571 598.466 189.72C598.615 189.848 598.69 190.019 598.69 190.232C598.69 190.445 598.615 190.627 598.466 190.776C598.338 190.925 598.167 191 597.954 191H596.226C594.903 191 594.242 190.275 594.242 188.824C592.962 190.488 591.351 191.32 589.41 191.32C588.258 191.32 587.308 191.032 586.562 190.456C585.836 189.859 585.474 188.995 585.474 187.864V181.144C585.474 180.739 585.186 180.536 584.61 180.536H583.362C583.148 180.536 582.967 180.461 582.818 180.312C582.69 180.163 582.626 179.981 582.626 179.768C582.626 179.555 582.69 179.384 582.818 179.256C582.967 179.107 583.148 179.032 583.362 179.032H584.61C586.338 179.032 587.202 179.725 587.202 181.112V187.864C587.202 188.504 587.394 188.995 587.778 189.336C588.183 189.677 588.738 189.848 589.442 189.848C591.404 189.848 592.962 188.824 594.114 186.776V179.448C594.114 179.235 594.199 179.064 594.37 178.936C594.54 178.787 594.743 178.712 594.978 178.712C595.212 178.712 595.415 178.787 595.586 178.936C595.756 179.064 595.842 179.235 595.842 179.448V188.888C595.842 189.293 596.044 189.496 596.45 189.496ZM609.947 187.928C610.118 187.672 610.288 187.544 610.459 187.544C610.651 187.544 610.843 187.587 611.035 187.672C611.334 187.8 611.483 187.981 611.483 188.216C611.483 188.429 611.451 188.589 611.387 188.696C610.299 190.445 608.571 191.32 606.203 191.32C604.39 191.32 602.939 190.712 601.851 189.496C600.763 188.259 600.219 186.744 600.219 184.952C600.219 183.16 600.784 181.677 601.915 180.504C603.067 179.309 604.486 178.712 606.171 178.712C607.878 178.712 609.36 179.107 610.619 179.896C610.875 180.067 611.003 180.269 611.003 180.504V183.192C611.003 183.405 610.918 183.587 610.747 183.736C610.576 183.864 610.374 183.928 610.139 183.928C609.904 183.928 609.702 183.864 609.531 183.736C609.36 183.587 609.275 183.405 609.275 183.192V180.92C608.422 180.429 607.398 180.184 606.203 180.184C605.008 180.184 603.995 180.632 603.163 181.528C602.331 182.424 601.915 183.587 601.915 185.016C601.915 186.424 602.31 187.587 603.099 188.504C603.91 189.4 604.944 189.848 606.203 189.848C607.867 189.848 609.115 189.208 609.947 187.928ZM623.697 183.96C623.633 182.808 623.292 181.891 622.673 181.208C622.076 180.525 621.201 180.184 620.049 180.184C618.918 180.184 617.969 180.536 617.201 181.24C616.433 181.923 615.953 182.829 615.761 183.96H623.697ZM623.761 187.928C623.91 187.672 624.081 187.544 624.273 187.544C624.465 187.544 624.657 187.597 624.849 187.704C625.041 187.789 625.169 187.939 625.233 188.152C625.318 188.344 625.308 188.525 625.201 188.696C624.113 190.445 622.385 191.32 620.017 191.32C618.14 191.32 616.657 190.723 615.569 189.528C614.502 188.312 613.969 186.787 613.969 184.952C613.969 183.117 614.524 181.624 615.633 180.472C616.742 179.299 618.204 178.712 620.017 178.712C621.83 178.712 623.174 179.256 624.049 180.344C624.945 181.432 625.393 182.883 625.393 184.696C625.393 185.187 625.116 185.432 624.561 185.432L615.697 185.464C615.782 186.787 616.209 187.853 616.977 188.664C617.766 189.453 618.78 189.848 620.017 189.848C621.681 189.848 622.929 189.208 623.761 187.928ZM627.647 179.032H629.279C630.623 179.032 631.316 179.757 631.359 181.208C632.511 179.544 633.876 178.712 635.455 178.712C636.351 178.712 637.108 178.883 637.727 179.224C638.025 179.395 638.175 179.619 638.175 179.896V182.584C638.175 182.797 638.089 182.979 637.919 183.128C637.748 183.256 637.545 183.32 637.311 183.32C637.076 183.32 636.873 183.256 636.703 183.128C636.532 182.979 636.447 182.797 636.447 182.584V180.344C636.169 180.237 635.753 180.184 635.199 180.184C634.644 180.184 634.015 180.451 633.311 180.984C632.607 181.496 631.999 182.264 631.487 183.288V190.584C631.487 190.797 631.401 190.968 631.231 191.096C631.06 191.245 630.857 191.32 630.623 191.32C630.388 191.32 630.185 191.245 630.015 191.096C629.844 190.968 629.759 190.797 629.759 190.584V181.144C629.759 180.739 629.545 180.536 629.119 180.536H627.647C627.433 180.536 627.252 180.472 627.103 180.344C626.975 180.195 626.911 180.013 626.911 179.8C626.911 179.587 626.975 179.405 627.103 179.256C627.252 179.107 627.433 179.032 627.647 179.032Z" fill="white"/>
<path d="M325.08 173.816L320.44 183.416H329.752L325.08 173.816ZM322.36 171.544H325.208C325.549 171.544 325.784 171.672 325.912 171.928L334.968 190.232C335.011 190.317 335.032 190.413 335.032 190.52C335.032 190.883 334.861 191.128 334.52 191.256C334.392 191.299 334.275 191.32 334.168 191.32C333.805 191.32 333.56 191.181 333.432 190.904L330.456 184.888H319.736L316.76 190.904C316.568 191.331 316.205 191.448 315.672 191.256C315.331 191.128 315.16 190.893 315.16 190.552C315.16 190.467 315.181 190.371 315.224 190.264L323.736 173.048H322.36C322.147 173.048 321.965 172.984 321.816 172.856C321.688 172.707 321.624 172.525 321.624 172.312C321.624 172.099 321.688 171.917 321.816 171.768C321.965 171.619 322.147 171.544 322.36 171.544ZM335.834 179.032H337.466C338.81 179.032 339.504 179.757 339.546 181.208C340.698 179.544 342.064 178.712 343.642 178.712C344.538 178.712 345.296 178.883 345.914 179.224C346.213 179.395 346.362 179.619 346.362 179.896V182.584C346.362 182.797 346.277 182.979 346.106 183.128C345.936 183.256 345.733 183.32 345.498 183.32C345.264 183.32 345.061 183.256 344.89 183.128C344.72 182.979 344.634 182.797 344.634 182.584V180.344C344.357 180.237 343.941 180.184 343.386 180.184C342.832 180.184 342.202 180.451 341.498 180.984C340.794 181.496 340.186 182.264 339.674 183.288V190.584C339.674 190.797 339.589 190.968 339.418 191.096C339.248 191.245 339.045 191.32 338.81 191.32C338.576 191.32 338.373 191.245 338.202 191.096C338.032 190.968 337.946 190.797 337.946 190.584V181.144C337.946 180.739 337.733 180.536 337.306 180.536H335.834C335.621 180.536 335.44 180.472 335.29 180.344C335.162 180.195 335.098 180.013 335.098 179.8C335.098 179.587 335.162 179.405 335.29 179.256C335.44 179.107 335.621 179.032 335.834 179.032ZM357.53 188.952C357.7 188.845 357.892 188.813 358.106 188.856C358.34 188.899 358.5 188.995 358.586 189.144C358.671 189.272 358.714 189.389 358.714 189.496C358.714 189.816 358.596 190.051 358.362 190.2C357.082 190.947 355.706 191.32 354.234 191.32C352.762 191.32 351.706 191.021 351.066 190.424C350.426 189.805 350.106 188.792 350.106 187.384V180.536H348.314C348.1 180.536 347.919 180.472 347.77 180.344C347.642 180.195 347.578 180.013 347.578 179.8C347.578 179.587 347.642 179.405 347.77 179.256C347.919 179.107 348.1 179.032 348.314 179.032H350.106V174.456C350.106 174.243 350.191 174.072 350.362 173.944C350.532 173.795 350.735 173.72 350.97 173.72C351.204 173.72 351.407 173.795 351.578 173.944C351.748 174.072 351.834 174.243 351.834 174.456V179.032H357.21C357.423 179.032 357.594 179.107 357.722 179.256C357.871 179.405 357.946 179.587 357.946 179.8C357.946 180.013 357.871 180.195 357.722 180.344C357.594 180.472 357.423 180.536 357.21 180.536H351.834V187.384C351.834 188.28 352.015 188.92 352.378 189.304C352.762 189.667 353.455 189.848 354.458 189.848C355.482 189.848 356.506 189.549 357.53 188.952ZM363.831 190.584C363.831 190.797 363.745 190.968 363.575 191.096C363.404 191.245 363.201 191.32 362.967 191.32C362.732 191.32 362.529 191.245 362.359 191.096C362.188 190.968 362.103 190.797 362.103 190.584V180.536H359.991C359.777 180.536 359.596 180.472 359.447 180.344C359.319 180.195 359.255 180.013 359.255 179.8C359.255 179.587 359.319 179.405 359.447 179.256C359.596 179.107 359.777 179.032 359.991 179.032H363.095C363.585 179.032 363.831 179.277 363.831 179.768V190.584ZM362.039 174.232C361.847 174.019 361.751 173.763 361.751 173.464C361.751 173.165 361.847 172.909 362.039 172.696C362.231 172.483 362.497 172.376 362.839 172.376C363.18 172.376 363.447 172.483 363.639 172.696C363.852 172.909 363.959 173.165 363.959 173.464C363.959 173.763 363.852 174.019 363.639 174.232C363.447 174.445 363.18 174.552 362.839 174.552C362.497 174.552 362.231 174.445 362.039 174.232ZM367.441 189.752V187.16C367.441 186.947 367.526 186.776 367.697 186.648C367.867 186.499 368.07 186.424 368.305 186.424C368.539 186.424 368.742 186.499 368.913 186.648C369.083 186.776 369.169 186.947 369.169 187.16V189.336C370.193 189.677 371.259 189.848 372.369 189.848C374.801 189.848 376.017 189.165 376.017 187.8C376.017 186.776 374.875 186.019 372.593 185.528C372.486 185.507 372.251 185.453 371.889 185.368C371.526 185.283 371.227 185.219 370.993 185.176C370.758 185.112 370.363 184.984 369.809 184.792C369.275 184.579 368.891 184.365 368.657 184.152C368.017 183.576 367.697 182.872 367.697 182.04C367.697 181.187 367.974 180.504 368.529 179.992C369.105 179.459 369.734 179.117 370.417 178.968C371.099 178.797 371.846 178.712 372.657 178.712C374.15 178.712 375.526 179 376.785 179.576C377.169 179.747 377.361 179.981 377.361 180.28V182.744C377.361 182.957 377.275 183.139 377.105 183.288C376.934 183.416 376.731 183.48 376.497 183.48C376.262 183.48 376.059 183.416 375.889 183.288C375.718 183.139 375.633 182.957 375.633 182.744V180.696C374.779 180.355 373.787 180.184 372.657 180.184C370.481 180.184 369.393 180.803 369.393 182.04C369.393 182.488 369.531 182.797 369.809 182.968C370.107 183.139 370.321 183.267 370.449 183.352C370.598 183.437 370.854 183.523 371.217 183.608C371.729 183.736 372.251 183.853 372.785 183.96C373.318 184.067 373.755 184.163 374.097 184.248C374.438 184.333 374.865 184.483 375.377 184.696C375.91 184.888 376.326 185.112 376.625 185.368C377.371 185.965 377.745 186.744 377.745 187.704C377.745 188.664 377.425 189.432 376.785 190.008C376.166 190.563 375.483 190.915 374.737 191.064C374.011 191.235 373.222 191.32 372.369 191.32C370.683 191.32 369.233 191.043 368.017 190.488C367.633 190.317 367.441 190.072 367.441 189.752ZM389.748 188.952C389.919 188.845 390.111 188.813 390.324 188.856C390.559 188.899 390.719 188.995 390.804 189.144C390.89 189.272 390.932 189.389 390.932 189.496C390.932 189.816 390.815 190.051 390.58 190.2C389.3 190.947 387.924 191.32 386.452 191.32C384.98 191.32 383.924 191.021 383.284 190.424C382.644 189.805 382.324 188.792 382.324 187.384V180.536H380.532C380.319 180.536 380.138 180.472 379.988 180.344C379.86 180.195 379.796 180.013 379.796 179.8C379.796 179.587 379.86 179.405 379.988 179.256C380.138 179.107 380.319 179.032 380.532 179.032H382.324V174.456C382.324 174.243 382.41 174.072 382.58 173.944C382.751 173.795 382.954 173.72 383.188 173.72C383.423 173.72 383.626 173.795 383.796 173.944C383.967 174.072 384.052 174.243 384.052 174.456V179.032H389.428C389.642 179.032 389.812 179.107 389.94 179.256C390.09 179.405 390.164 179.587 390.164 179.8C390.164 180.013 390.09 180.195 389.94 180.344C389.812 180.472 389.642 180.536 389.428 180.536H384.052V187.384C384.052 188.28 384.234 188.92 384.596 189.304C384.98 189.667 385.674 189.848 386.676 189.848C387.7 189.848 388.724 189.549 389.748 188.952Z" fill="white"/>
<path d="M0.226497 206.5L6 212.274L11.7735 206.5L6 200.726L0.226497 206.5ZM666.774 206.5L661 200.726L655.226 206.5L661 212.274L666.774 206.5ZM6 207.5H661V205.5H6V207.5Z" fill="white"/>
</svg>
